<svg xmlns="http://www.w3.org/2000/svg" xmlns:xlink="http://www.w3.org/1999/xlink" width="500" zoomAndPan="magnify" viewBox="0 0 375 374.999991" height="500" preserveAspectRatio="xMidYMid meet" version="1.0"><defs><clipPath id="5efa26120b"><path d="M 52.445312 49 L 322 49 L 322 318.84375 L 52.445312 318.84375 Z M 52.445312 49 " clip-rule="nonzero"/></clipPath></defs><rect x="-37.5" width="450" fill="#ffffff" y="-37.499999" height="449.999989" fill-opacity="1"/><rect x="-37.5" width="450" fill="#ffffff" y="-37.499999" height="449.999989" fill-opacity="1"/><rect x="-37.5" width="450" fill="#ffffff" y="-37.499999" height="449.999989" fill-opacity="1"/><path fill="#fed7aa" d="M 310.960938 247.609375 L 278.929688 291.015625 C 269.277344 304.089844 253.996094 311.808594 237.742188 311.808594 L 58.84375 311.808594 L 58.84375 235.03125 L 97.234375 235.03125 L 115.328125 216.933594 C 120.128906 212.132812 126.640625 209.4375 133.425781 209.4375 L 185.4375 209.4375 C 198.183594 209.4375 210 218.148438 212.046875 230.730469 C 214.65625 246.765625 202.351562 260.621094 186.808594 260.621094 L 237.992188 260.621094 L 274.378906 220.863281 C 283.96875 208.875 302.445312 209.675781 310.960938 222.449219 C 316.039062 230.066406 316.039062 239.992188 310.960938 247.609375 Z M 310.960938 247.609375 " fill-opacity="1" fill-rule="nonzero"/><g clip-path="url(#5efa26120b)"><path fill="#0f172a" d="M 316.28125 218.894531 C 322.816406 228.691406 322.816406 241.363281 316.28125 251.160156 L 284.078125 294.8125 C 273.269531 309.457031 255.949219 318.203125 237.742188 318.203125 L 58.84375 318.203125 C 55.308594 318.203125 52.445312 315.34375 52.445312 311.804688 C 52.445312 308.269531 55.308594 305.40625 58.84375 305.40625 L 237.742188 305.40625 C 251.898438 305.40625 265.371094 298.609375 273.78125 287.210938 L 305.808594 243.8125 C 309.296875 238.578125 309.296875 231.480469 305.632812 225.992188 C 302.722656 221.617188 298.046875 218.980469 292.800781 218.757812 C 287.441406 218.484375 282.652344 220.769531 279.378906 224.855469 L 242.714844 264.945312 C 241.503906 266.269531 239.792969 267.019531 237.992188 267.019531 L 161.214844 267.019531 C 157.679688 267.019531 154.816406 264.15625 154.816406 260.621094 C 154.816406 257.082031 157.679688 254.222656 161.214844 254.222656 L 186.808594 254.222656 C 192.449219 254.222656 197.785156 251.761719 201.441406 247.449219 C 205.152344 243.089844 206.679688 237.515625 205.738281 231.753906 C 204.253906 222.679688 195.53125 215.832031 185.441406 215.832031 L 133.429688 215.832031 C 128.296875 215.832031 123.480469 217.832031 119.851562 221.457031 L 101.757812 239.554688 C 100.554688 240.753906 98.933594 241.425781 97.234375 241.425781 L 58.84375 241.425781 C 55.308594 241.425781 52.445312 238.566406 52.445312 235.03125 C 52.445312 231.492188 55.308594 228.632812 58.84375 228.632812 L 94.585938 228.632812 L 110.804688 212.410156 C 116.847656 206.363281 124.882812 203.039062 133.429688 203.039062 L 185.441406 203.039062 C 201.742188 203.039062 215.886719 214.496094 218.363281 229.707031 C 219.796875 238.472656 217.476562 247.25 212.21875 254.222656 L 235.179688 254.222656 L 269.660156 216.535156 C 275.242188 209.535156 284.117188 205.738281 293.351562 205.976562 C 302.722656 206.386719 311.082031 211.097656 316.28125 218.898438 Z M 180.410156 75.074219 L 212.398438 75.074219 C 215.9375 75.074219 218.796875 72.214844 218.796875 68.675781 C 218.796875 65.140625 215.9375 62.28125 212.398438 62.28125 L 193.203125 62.28125 L 193.203125 55.882812 C 193.203125 52.34375 190.34375 49.484375 186.808594 49.484375 C 183.269531 49.484375 180.410156 52.34375 180.410156 55.882812 L 180.410156 62.28125 C 166.292969 62.28125 154.816406 73.765625 154.816406 87.871094 C 154.816406 101.980469 166.292969 113.464844 180.410156 113.464844 L 193.203125 113.464844 C 200.265625 113.464844 206 119.199219 206 126.261719 C 206 133.320312 200.265625 139.058594 193.203125 139.058594 L 161.214844 139.058594 C 157.675781 139.058594 154.816406 141.917969 154.816406 145.453125 C 154.816406 148.992188 157.675781 151.851562 161.214844 151.851562 L 180.410156 151.851562 L 180.410156 158.25 C 180.410156 161.789062 183.269531 164.648438 186.808594 164.648438 C 190.34375 164.648438 193.203125 161.789062 193.203125 158.25 L 193.203125 151.851562 C 207.3125 151.851562 218.796875 140.367188 218.796875 126.261719 C 218.796875 112.152344 207.3125 100.667969 193.203125 100.667969 L 180.410156 100.667969 C 173.355469 100.667969 167.613281 94.933594 167.613281 87.871094 C 167.613281 80.8125 173.355469 75.074219 180.410156 75.074219 Z M 180.410156 75.074219 " fill-opacity="1" fill-rule="nonzero"/></g></svg>