<svg xmlns="http://www.w3.org/2000/svg" xmlns:xlink="http://www.w3.org/1999/xlink" width="500" zoomAndPan="magnify" viewBox="0 0 375 374.999991" height="500" preserveAspectRatio="xMidYMid meet" version="1.0"><defs><clipPath id="847ffcd3ab"><path d="M 16.5 134 L 223 134 L 223 341 L 16.5 341 Z M 16.5 134 " clip-rule="nonzero"/></clipPath><clipPath id="92eed28ef3"><path d="M 152 156 L 358.5 156 L 358.5 363 L 152 363 Z M 152 156 " clip-rule="nonzero"/></clipPath><clipPath id="a901ec8975"><path d="M 222 200 L 358.5 200 L 358.5 362 L 222 362 Z M 222 200 " clip-rule="nonzero"/></clipPath></defs><rect x="-37.5" width="450" fill="#ffffff" y="-37.499999" height="449.999989" fill-opacity="1"/><rect x="-37.5" width="450" fill="#ffffff" y="-37.499999" height="449.999989" fill-opacity="1"/><rect x="-37.5" width="450" fill="#ffffff" y="-37.499999" height="449.999989" fill-opacity="1"/><path fill="#3db54b" d="M 311.089844 115.472656 C 311.089844 172.222656 265.058594 218.246094 208.292969 218.246094 C 151.519531 218.246094 105.476562 172.222656 105.476562 115.472656 C 105.476562 58.679688 151.519531 12.679688 208.292969 12.679688 C 265.058594 12.679688 311.089844 58.703125 311.089844 115.472656 Z M 311.089844 115.472656 " fill-opacity="1" fill-rule="nonzero"/><path fill="#329c40" d="M 309.417969 133.464844 L 238.222656 73.132812 C 235.621094 71.964844 232.957031 71.023438 230.257812 70.203125 L 212.6875 55.226562 L 203.871094 55.226562 L 203.871094 67.410156 C 195.738281 68.324219 189.304688 70.925781 184.539062 75.242188 C 179.789062 79.535156 177.417969 85.019531 177.417969 91.671875 C 177.417969 97.898438 179.078125 103.152344 182.421875 107.378906 C 183.273438 108.449219 184.265625 109.488281 185.382812 110.492188 C 185.808594 110.941406 203.585938 129.542969 203.871094 129.804688 L 203.871094 147.625 C 199.847656 147.558594 195.304688 146.859375 190.210938 145.492188 C 185.128906 144.105469 180.695312 142.402344 176.882812 140.371094 L 176.882812 155.664062 C 177.152344 155.792969 209.464844 194.09375 228.203125 216.300781 C 269.625 208.140625 302.042969 175.128906 309.417969 133.464844 Z M 309.417969 133.464844 " fill-opacity="1" fill-rule="nonzero"/><path fill="#dcdcce" d="M 208.292969 206.382812 C 158.132812 206.382812 117.351562 165.570312 117.351562 115.472656 C 117.351562 65.355469 158.132812 24.542969 208.292969 24.542969 C 258.4375 24.542969 299.234375 65.355469 299.234375 115.472656 C 299.234375 165.570312 258.449219 206.382812 208.292969 206.382812 Z M 208.292969 36.429688 C 164.699219 36.429688 129.207031 71.886719 129.207031 115.472656 C 129.207031 159.0625 164.699219 194.542969 208.292969 194.542969 C 251.871094 194.542969 287.347656 159.0625 287.347656 115.472656 C 287.347656 71.886719 251.871094 36.429688 208.292969 36.429688 Z M 208.292969 36.429688 " fill-opacity="1" fill-rule="nonzero"/><path fill="#dcdcce" d="M 240.003906 134.996094 C 240.003906 141.996094 237.652344 147.777344 232.976562 152.296875 C 228.289062 156.84375 221.527344 159.640625 212.6875 160.710938 L 212.6875 176.429688 L 203.871094 176.429688 L 203.871094 161.15625 C 192.910156 160.960938 183.929688 159.125 176.882812 155.652344 L 176.882812 140.359375 C 180.695312 142.390625 185.128906 144.09375 190.210938 145.480469 C 195.304688 146.847656 199.847656 147.546875 203.871094 147.613281 L 203.871094 120.519531 L 198.296875 118.28125 C 191.050781 115.234375 185.765625 111.605469 182.421875 107.378906 C 179.078125 103.152344 177.417969 97.90625 177.417969 91.671875 C 177.417969 85.019531 179.796875 79.535156 184.539062 75.242188 C 189.304688 70.925781 195.730469 68.324219 203.871094 67.410156 L 203.871094 55.226562 L 212.6875 55.226562 L 212.6875 67.191406 C 221.65625 67.527344 230.167969 69.496094 238.222656 73.121094 L 233.371094 86.371094 C 226.445312 83.390625 219.550781 81.585938 212.6875 81.019531 L 212.6875 107.390625 L 217.722656 109.5 C 226.125 113.015625 231.941406 116.730469 235.175781 120.652344 C 238.398438 124.5625 240.003906 129.347656 240.003906 134.996094 Z M 192.996094 91.539062 C 192.996094 94.269531 193.785156 96.574219 195.347656 98.410156 C 196.929688 100.246094 199.761719 102.058594 203.871094 103.851562 L 203.871094 81.316406 C 200.339844 81.894531 197.640625 83.0625 195.785156 84.855469 C 193.925781 86.644531 192.996094 88.875 192.996094 91.539062 Z M 224.355469 136.085938 C 224.355469 133.269531 223.460938 130.964844 221.667969 129.171875 C 219.886719 127.359375 216.882812 125.613281 212.6875 123.90625 L 212.6875 147.035156 C 220.46875 145.710938 224.355469 142.085938 224.355469 136.085938 Z M 224.355469 136.085938 " fill-opacity="1" fill-rule="nonzero"/><g clip-path="url(#847ffcd3ab)"><path fill="#d1cee7" d="M 222.117188 237.429688 C 222.117188 239.109375 222.074219 240.792969 221.992188 242.472656 C 221.910156 244.152344 221.785156 245.828125 221.621094 247.503906 C 221.457031 249.179688 221.25 250.847656 221.003906 252.511719 C 220.757812 254.175781 220.46875 255.832031 220.140625 257.480469 C 219.8125 259.132812 219.445312 260.773438 219.035156 262.402344 C 218.625 264.035156 218.179688 265.65625 217.691406 267.265625 C 217.203125 268.875 216.671875 270.472656 216.105469 272.054688 C 215.539062 273.640625 214.933594 275.207031 214.289062 276.761719 C 213.648438 278.316406 212.964844 279.855469 212.246094 281.375 C 211.527344 282.894531 210.769531 284.398438 209.976562 285.882812 C 209.183594 287.363281 208.355469 288.828125 207.488281 290.269531 C 206.625 291.714844 205.726562 293.132812 204.789062 294.53125 C 203.855469 295.929688 202.886719 297.304688 201.886719 298.65625 C 200.882812 300.007812 199.847656 301.335938 198.78125 302.632812 C 197.714844 303.933594 196.613281 305.207031 195.484375 306.453125 C 194.355469 307.699219 193.195312 308.917969 192.003906 310.109375 C 190.816406 311.296875 189.597656 312.457031 188.351562 313.585938 C 187.105469 314.714844 185.832031 315.816406 184.53125 316.882812 C 183.230469 317.949219 181.902344 318.984375 180.550781 319.984375 C 179.199219 320.988281 177.824219 321.957031 176.425781 322.890625 C 175.027344 323.824219 173.605469 324.726562 172.164062 325.589844 C 170.71875 326.453125 169.257812 327.285156 167.773438 328.078125 C 166.289062 328.871094 164.785156 329.625 163.265625 330.34375 C 161.742188 331.0625 160.207031 331.746094 158.652344 332.390625 C 157.097656 333.03125 155.527344 333.636719 153.945312 334.203125 C 152.359375 334.769531 150.761719 335.296875 149.152344 335.785156 C 147.542969 336.273438 145.921875 336.722656 144.289062 337.132812 C 142.65625 337.542969 141.015625 337.910156 139.367188 338.238281 C 137.714844 338.566406 136.058594 338.855469 134.394531 339.101562 C 132.730469 339.347656 131.058594 339.554688 129.386719 339.71875 C 127.710938 339.882812 126.035156 340.007812 124.355469 340.089844 C 122.671875 340.171875 120.992188 340.210938 119.308594 340.210938 C 117.625 340.210938 115.945312 340.171875 114.265625 340.089844 C 112.585938 340.007812 110.90625 339.882812 109.230469 339.71875 C 107.558594 339.554688 105.886719 339.347656 104.222656 339.101562 C 102.558594 338.851562 100.902344 338.566406 99.253906 338.238281 C 97.601562 337.910156 95.960938 337.542969 94.328125 337.132812 C 92.695312 336.722656 91.074219 336.273438 89.464844 335.785156 C 87.855469 335.296875 86.257812 334.769531 84.675781 334.203125 C 83.089844 333.636719 81.519531 333.03125 79.964844 332.390625 C 78.410156 331.746094 76.875 331.0625 75.351562 330.34375 C 73.832031 329.625 72.328125 328.871094 70.847656 328.078125 C 69.363281 327.285156 67.898438 326.453125 66.457031 325.589844 C 65.011719 324.726562 63.589844 323.824219 62.191406 322.890625 C 60.792969 321.957031 59.417969 320.988281 58.066406 319.984375 C 56.714844 318.984375 55.390625 317.949219 54.089844 316.882812 C 52.789062 315.816406 51.515625 314.714844 50.269531 313.585938 C 49.019531 312.457031 47.804688 311.296875 46.613281 310.109375 C 45.421875 308.917969 44.261719 307.699219 43.132812 306.453125 C 42.003906 305.207031 40.90625 303.933594 39.835938 302.632812 C 38.769531 301.335938 37.734375 300.007812 36.734375 298.65625 C 35.730469 297.304688 34.761719 295.929688 33.828125 294.53125 C 32.894531 293.132812 31.992188 291.714844 31.128906 290.269531 C 30.261719 288.828125 29.433594 287.363281 28.640625 285.882812 C 27.847656 284.398438 27.089844 282.894531 26.371094 281.375 C 25.652344 279.855469 24.972656 278.316406 24.328125 276.761719 C 23.683594 275.207031 23.078125 273.640625 22.511719 272.054688 C 21.945312 270.472656 21.417969 268.875 20.929688 267.265625 C 20.441406 265.65625 19.992188 264.035156 19.582031 262.402344 C 19.171875 260.773438 18.804688 259.132812 18.476562 257.480469 C 18.148438 255.832031 17.859375 254.175781 17.613281 252.511719 C 17.367188 250.847656 17.160156 249.179688 16.996094 247.503906 C 16.832031 245.828125 16.707031 244.152344 16.625 242.472656 C 16.542969 240.792969 16.5 239.109375 16.5 237.429688 C 16.5 235.746094 16.542969 234.066406 16.625 232.386719 C 16.707031 230.707031 16.832031 229.027344 16.996094 227.355469 C 17.160156 225.679688 17.367188 224.011719 17.613281 222.347656 C 17.859375 220.683594 18.148438 219.027344 18.476562 217.378906 C 18.804688 215.726562 19.171875 214.085938 19.582031 212.453125 C 19.992188 210.824219 20.441406 209.203125 20.929688 207.59375 C 21.417969 205.984375 21.945312 204.386719 22.511719 202.800781 C 23.078125 201.21875 23.683594 199.648438 24.328125 198.09375 C 24.972656 196.542969 25.652344 195.003906 26.371094 193.484375 C 27.089844 191.960938 27.847656 190.460938 28.640625 188.976562 C 29.433594 187.492188 30.261719 186.03125 31.128906 184.585938 C 31.992188 183.144531 32.894531 181.722656 33.828125 180.324219 C 34.761719 178.925781 35.730469 177.550781 36.734375 176.199219 C 37.734375 174.851562 38.769531 173.523438 39.835938 172.222656 C 40.90625 170.921875 42.003906 169.648438 43.132812 168.402344 C 44.261719 167.15625 45.421875 165.941406 46.613281 164.75 C 47.804688 163.5625 49.019531 162.402344 50.269531 161.273438 C 51.515625 160.140625 52.789062 159.042969 54.089844 157.976562 C 55.390625 156.910156 56.714844 155.875 58.066406 154.871094 C 59.417969 153.871094 60.792969 152.902344 62.191406 151.96875 C 63.589844 151.03125 65.011719 150.132812 66.457031 149.269531 C 67.898438 148.402344 69.363281 147.574219 70.847656 146.78125 C 72.328125 145.988281 73.832031 145.234375 75.351562 144.515625 C 76.875 143.792969 78.410156 143.113281 79.964844 142.46875 C 81.519531 141.824219 83.089844 141.21875 84.675781 140.652344 C 86.257812 140.085938 87.855469 139.558594 89.464844 139.070312 C 91.074219 138.582031 92.695312 138.132812 94.328125 137.726562 C 95.960938 137.316406 97.601562 136.949219 99.253906 136.621094 C 100.902344 136.292969 102.558594 136.003906 104.222656 135.757812 C 105.886719 135.511719 107.558594 135.304688 109.230469 135.140625 C 110.90625 134.976562 112.585938 134.851562 114.265625 134.769531 C 115.945312 134.6875 117.625 134.644531 119.308594 134.644531 C 120.992188 134.644531 122.671875 134.6875 124.355469 134.769531 C 126.035156 134.851562 127.710938 134.976562 129.386719 135.140625 C 131.058594 135.304688 132.730469 135.511719 134.394531 135.757812 C 136.058594 136.003906 137.714844 136.292969 139.367188 136.621094 C 141.015625 136.949219 142.65625 137.316406 144.289062 137.726562 C 145.921875 138.132812 147.542969 138.582031 149.152344 139.070312 C 150.761719 139.558594 152.359375 140.085938 153.945312 140.652344 C 155.527344 141.21875 157.097656 141.824219 158.652344 142.46875 C 160.207031 143.113281 161.742188 143.792969 163.265625 144.515625 C 164.785156 145.234375 166.289062 145.988281 167.773438 146.78125 C 169.257812 147.574219 170.71875 148.402344 172.164062 149.269531 C 173.605469 150.132812 175.027344 151.03125 176.425781 151.96875 C 177.824219 152.902344 179.199219 153.871094 180.550781 154.871094 C 181.902344 155.875 183.230469 156.910156 184.53125 157.976562 C 185.832031 159.042969 187.105469 160.140625 188.351562 161.273438 C 189.597656 162.402344 190.816406 163.5625 192.003906 164.75 C 193.195312 165.941406 194.355469 167.15625 195.484375 168.402344 C 196.613281 169.648438 197.714844 170.921875 198.78125 172.222656 C 199.847656 173.523438 200.882812 174.851562 201.886719 176.199219 C 202.886719 177.550781 203.855469 178.925781 204.789062 180.324219 C 205.726562 181.722656 206.625 183.144531 207.488281 184.585938 C 208.355469 186.03125 209.183594 187.492188 209.976562 188.976562 C 210.769531 190.460938 211.527344 191.960938 212.246094 193.484375 C 212.964844 195.003906 213.648438 196.542969 214.289062 198.09375 C 214.933594 199.648438 215.539062 201.21875 216.105469 202.800781 C 216.671875 204.386719 217.203125 205.984375 217.691406 207.59375 C 218.179688 209.203125 218.625 210.824219 219.035156 212.453125 C 219.445312 214.085938 219.8125 215.726562 220.140625 217.378906 C 220.46875 219.027344 220.757812 220.683594 221.003906 222.347656 C 221.25 224.011719 221.457031 225.679688 221.621094 227.355469 C 221.785156 229.027344 221.910156 230.707031 221.992188 232.386719 C 222.074219 234.066406 222.117188 235.746094 222.117188 237.429688 Z M 222.117188 237.429688 " fill-opacity="1" fill-rule="nonzero"/></g><path fill="#95a6bd" d="M 220.792969 253.902344 L 119.320312 178.820312 L 84.59375 236.347656 L 101.859375 255.957031 L 83.296875 245.328125 L 119.375 295.960938 L 150.582031 335.363281 C 187 323.785156 214.621094 292.386719 220.792969 253.902344 Z M 220.792969 253.902344 " fill-opacity="1" fill-rule="nonzero"/><path fill="#426a73" d="M 119.320312 328.382812 C 69.144531 328.382812 28.355469 287.570312 28.355469 237.429688 C 28.355469 187.265625 69.144531 146.476562 119.320312 146.476562 C 169.460938 146.476562 210.304688 187.265625 210.304688 237.429688 C 210.304688 287.570312 169.460938 328.382812 119.320312 328.382812 Z M 119.320312 158.363281 C 75.710938 158.363281 40.234375 193.84375 40.234375 237.429688 C 40.234375 280.992188 75.710938 316.496094 119.320312 316.496094 C 162.917969 316.496094 198.394531 280.992188 198.394531 237.429688 C 198.394531 193.84375 162.917969 158.363281 119.320312 158.363281 Z M 119.320312 158.363281 " fill-opacity="1" fill-rule="nonzero"/><path fill="#426a73" d="M 119.320312 266.574219 L 83.296875 245.328125 L 119.320312 296.023438 L 155.34375 245.328125 Z M 119.320312 266.574219 " fill-opacity="1" fill-rule="nonzero"/><path fill="#426a73" d="M 119.320312 256.875 L 153.980469 236.371094 L 119.320312 178.820312 L 84.59375 236.347656 Z M 119.320312 256.875 " fill-opacity="1" fill-rule="nonzero"/><g clip-path="url(#92eed28ef3)"><path fill="#fa9b19" d="M 358.566406 259.472656 C 358.566406 261.15625 358.527344 262.835938 358.441406 264.515625 C 358.359375 266.195312 358.238281 267.875 358.070312 269.546875 C 357.90625 271.222656 357.703125 272.890625 357.453125 274.554688 C 357.207031 276.21875 356.917969 277.875 356.589844 279.527344 C 356.261719 281.175781 355.894531 282.816406 355.484375 284.449219 C 355.078125 286.078125 354.628906 287.699219 354.140625 289.308594 C 353.652344 290.921875 353.125 292.515625 352.558594 294.101562 C 351.992188 295.683594 351.386719 297.253906 350.742188 298.808594 C 350.097656 300.363281 349.414062 301.898438 348.695312 303.417969 C 347.976562 304.941406 347.222656 306.441406 346.425781 307.925781 C 345.632812 309.410156 344.804688 310.871094 343.941406 312.316406 C 343.074219 313.757812 342.175781 315.179688 341.242188 316.578125 C 340.304688 317.976562 339.335938 319.351562 338.335938 320.703125 C 337.332031 322.054688 336.296875 323.378906 335.230469 324.679688 C 334.164062 325.980469 333.066406 327.253906 331.933594 328.5 C 330.804688 329.746094 329.644531 330.964844 328.457031 332.152344 C 327.265625 333.34375 326.046875 334.5 324.800781 335.632812 C 323.554688 336.761719 322.28125 337.859375 320.980469 338.925781 C 319.679688 339.992188 318.351562 341.027344 317 342.03125 C 315.652344 343.03125 314.273438 344 312.875 344.933594 C 311.476562 345.871094 310.054688 346.769531 308.613281 347.632812 C 307.171875 348.5 305.707031 349.328125 304.222656 350.121094 C 302.738281 350.914062 301.238281 351.667969 299.714844 352.390625 C 298.195312 353.109375 296.65625 353.789062 295.101562 354.433594 C 293.546875 355.078125 291.976562 355.683594 290.394531 356.25 C 288.808594 356.816406 287.214844 357.34375 285.601562 357.832031 C 283.992188 358.320312 282.371094 358.769531 280.738281 359.175781 C 279.109375 359.585938 277.464844 359.953125 275.816406 360.28125 C 274.164062 360.609375 272.507812 360.898438 270.84375 361.144531 C 269.179688 361.390625 267.511719 361.597656 265.835938 361.761719 C 264.160156 361.925781 262.484375 362.050781 260.804688 362.132812 C 259.125 362.214844 257.441406 362.257812 255.757812 362.257812 C 254.078125 362.257812 252.394531 362.214844 250.714844 362.132812 C 249.035156 362.050781 247.355469 361.925781 245.683594 361.761719 C 244.007812 361.597656 242.339844 361.390625 240.675781 361.144531 C 239.011719 360.898438 237.351562 360.609375 235.703125 360.28125 C 234.050781 359.953125 232.410156 359.585938 230.777344 359.175781 C 229.148438 358.769531 227.527344 358.320312 225.914062 357.832031 C 224.304688 357.34375 222.707031 356.816406 221.125 356.25 C 219.539062 355.683594 217.972656 355.078125 216.417969 354.433594 C 214.863281 353.789062 213.324219 353.109375 211.804688 352.390625 C 210.28125 351.667969 208.78125 350.914062 207.296875 350.121094 C 205.8125 349.328125 204.347656 348.5 202.90625 347.632812 C 201.460938 346.769531 200.042969 345.871094 198.644531 344.933594 C 197.242188 344 195.867188 343.03125 194.515625 342.03125 C 193.164062 341.027344 191.839844 339.992188 190.539062 338.925781 C 189.238281 337.859375 187.964844 336.761719 186.71875 335.632812 C 185.472656 334.5 184.253906 333.34375 183.0625 332.152344 C 181.875 330.964844 180.714844 329.746094 179.585938 328.5 C 178.453125 327.253906 177.355469 325.980469 176.289062 324.679688 C 175.222656 323.378906 174.1875 322.054688 173.183594 320.703125 C 172.179688 319.351562 171.210938 317.976562 170.277344 316.578125 C 169.34375 315.179688 168.445312 313.757812 167.578125 312.316406 C 166.714844 310.871094 165.882812 309.410156 165.089844 307.925781 C 164.296875 306.441406 163.542969 304.941406 162.824219 303.417969 C 162.101562 301.898438 161.421875 300.363281 160.777344 298.808594 C 160.132812 297.253906 159.527344 295.683594 158.960938 294.101562 C 158.394531 292.515625 157.867188 290.921875 157.378906 289.308594 C 156.890625 287.699219 156.441406 286.078125 156.03125 284.449219 C 155.625 282.816406 155.253906 281.175781 154.925781 279.527344 C 154.597656 277.875 154.3125 276.21875 154.066406 274.554688 C 153.816406 272.890625 153.613281 271.222656 153.445312 269.546875 C 153.28125 267.875 153.160156 266.195312 153.074219 264.515625 C 152.992188 262.835938 152.953125 261.15625 152.953125 259.472656 C 152.953125 257.792969 152.992188 256.109375 153.074219 254.429688 C 153.160156 252.75 153.28125 251.074219 153.445312 249.398438 C 153.613281 247.726562 153.816406 246.054688 154.066406 244.390625 C 154.3125 242.726562 154.597656 241.070312 154.925781 239.421875 C 155.253906 237.773438 155.625 236.132812 156.03125 234.5 C 156.441406 232.867188 156.890625 231.246094 157.378906 229.636719 C 157.867188 228.027344 158.394531 226.429688 158.960938 224.847656 C 159.527344 223.261719 160.132812 221.695312 160.777344 220.140625 C 161.421875 218.585938 162.101562 217.046875 162.824219 215.527344 C 163.542969 214.007812 164.296875 212.503906 165.089844 211.023438 C 165.882812 209.539062 166.714844 208.074219 167.578125 206.632812 C 168.445312 205.191406 169.34375 203.769531 170.277344 202.371094 C 171.210938 200.972656 172.179688 199.597656 173.183594 198.246094 C 174.1875 196.894531 175.222656 195.570312 176.289062 194.269531 C 177.355469 192.96875 178.453125 191.695312 179.585938 190.449219 C 180.714844 189.203125 181.875 187.984375 183.0625 186.792969 C 184.253906 185.605469 185.472656 184.445312 186.71875 183.316406 C 187.964844 182.1875 189.238281 181.089844 190.539062 180.019531 C 191.839844 178.953125 193.164062 177.917969 194.515625 176.917969 C 195.867188 175.914062 197.242188 174.945312 198.644531 174.011719 C 200.042969 173.078125 201.460938 172.179688 202.90625 171.3125 C 204.347656 170.449219 205.8125 169.621094 207.296875 168.828125 C 208.78125 168.035156 210.28125 167.277344 211.804688 166.558594 C 213.324219 165.839844 214.863281 165.15625 216.417969 164.515625 C 217.972656 163.871094 219.539062 163.265625 221.125 162.699219 C 222.707031 162.132812 224.304688 161.605469 225.914062 161.117188 C 227.527344 160.628906 229.148438 160.179688 230.777344 159.769531 C 232.410156 159.363281 234.050781 158.992188 235.703125 158.664062 C 237.351562 158.335938 239.011719 158.050781 240.675781 157.800781 C 242.339844 157.554688 244.007812 157.351562 245.683594 157.183594 C 247.355469 157.019531 249.035156 156.894531 250.714844 156.8125 C 252.394531 156.730469 254.078125 156.691406 255.757812 156.691406 C 257.441406 156.691406 259.125 156.730469 260.804688 156.8125 C 262.484375 156.894531 264.160156 157.019531 265.835938 157.183594 C 267.511719 157.351562 269.179688 157.554688 270.84375 157.800781 C 272.507812 158.050781 274.167969 158.335938 275.816406 158.664062 C 277.464844 158.992188 279.109375 159.363281 280.738281 159.769531 C 282.371094 160.179688 283.992188 160.628906 285.601562 161.117188 C 287.214844 161.605469 288.808594 162.132812 290.394531 162.699219 C 291.976562 163.265625 293.546875 163.871094 295.101562 164.515625 C 296.65625 165.15625 298.195312 165.839844 299.714844 166.558594 C 301.238281 167.277344 302.738281 168.035156 304.222656 168.828125 C 305.707031 169.621094 307.171875 170.449219 308.613281 171.3125 C 310.054688 172.179688 311.476562 173.078125 312.875 174.011719 C 314.273438 174.945312 315.652344 175.914062 317 176.917969 C 318.351562 177.917969 319.679688 178.953125 320.980469 180.019531 C 322.28125 181.089844 323.554688 182.1875 324.800781 183.316406 C 326.046875 184.445312 327.265625 185.605469 328.457031 186.792969 C 329.644531 187.984375 330.804688 189.203125 331.933594 190.449219 C 333.066406 191.695312 334.164062 192.96875 335.230469 194.269531 C 336.296875 195.570312 337.332031 196.894531 338.335938 198.246094 C 339.335938 199.597656 340.304688 200.972656 341.242188 202.371094 C 342.175781 203.769531 343.074219 205.191406 343.941406 206.632812 C 344.804688 208.074219 345.632812 209.539062 346.425781 211.023438 C 347.222656 212.503906 347.976562 214.007812 348.695312 215.527344 C 349.414062 217.046875 350.097656 218.585938 350.742188 220.140625 C 351.386719 221.695312 351.992188 223.261719 352.558594 224.847656 C 353.125 226.429688 353.652344 228.027344 354.140625 229.636719 C 354.628906 231.246094 355.078125 232.867188 355.484375 234.5 C 355.894531 236.132812 356.261719 237.773438 356.589844 239.421875 C 356.917969 241.070312 357.207031 242.726562 357.453125 244.390625 C 357.703125 246.054688 357.90625 247.726562 358.070312 249.398438 C 358.238281 251.074219 358.359375 252.75 358.441406 254.429688 C 358.527344 256.109375 358.566406 257.792969 358.566406 259.472656 Z M 358.566406 259.472656 " fill-opacity="1" fill-rule="nonzero"/></g><g clip-path="url(#a901ec8975)"><path fill="#dc8c1e" d="M 358.054688 269.992188 L 267.285156 200.867188 L 258.042969 200.867188 L 258.042969 213.089844 L 243.566406 200.867188 L 234.332031 200.867188 L 234.332031 213.472656 L 222.117188 213.472656 L 222.117188 223.796875 L 234.332031 234.765625 L 234.332031 296.617188 L 222.117188 296.617188 L 222.117188 306.894531 L 263.625 361.941406 C 313.253906 358.171875 353.050781 319.238281 358.054688 269.992188 Z M 358.054688 269.992188 " fill-opacity="1" fill-rule="nonzero"/></g><path fill="#fadc14" d="M 255.757812 350.40625 C 205.605469 350.40625 164.816406 309.59375 164.816406 259.472656 C 164.816406 209.355469 205.605469 168.5625 255.757812 168.5625 C 305.914062 168.5625 346.699219 209.355469 346.699219 259.472656 C 346.699219 309.59375 305.921875 350.40625 255.757812 350.40625 Z M 255.757812 180.4375 C 212.164062 180.4375 176.683594 215.875 176.683594 259.460938 C 176.683594 303.050781 212.164062 338.550781 255.757812 338.550781 C 299.34375 338.550781 334.824219 303.050781 334.824219 259.460938 C 334.824219 215.875 299.355469 180.4375 255.757812 180.4375 Z M 255.757812 180.4375 " fill-opacity="1" fill-rule="nonzero"/><path fill="#fadc14" d="M 289.414062 281.902344 C 289.414062 271.0625 285.074219 263.460938 276.34375 259.15625 C 284.09375 254.164062 287.972656 247.0625 287.972656 237.84375 C 287.972656 230.097656 285.554688 224.101562 280.738281 219.863281 C 277.304688 216.859375 272.804688 214.914062 267.296875 214.019531 L 267.296875 200.878906 L 258.054688 200.878906 L 258.054688 213.484375 L 246.539062 213.460938 L 243.578125 213.484375 L 243.578125 200.878906 L 234.34375 200.878906 L 234.34375 213.484375 L 222.128906 213.484375 L 222.128906 223.808594 L 234.34375 223.808594 L 234.34375 296.625 L 222.128906 296.625 L 222.128906 306.90625 L 234.34375 306.925781 L 234.34375 318.082031 L 243.578125 318.082031 L 243.578125 306.90625 L 258.054688 306.90625 L 258.054688 318.082031 L 267.296875 318.082031 L 267.296875 306.710938 C 282.015625 305.320312 289.414062 297.0625 289.414062 281.902344 Z M 247.171875 223.796875 L 262.632812 223.796875 C 270.585938 223.796875 274.542969 228.320312 274.542969 237.386719 C 274.542969 246.5625 271.066406 251.171875 264.105469 251.171875 L 247.171875 251.148438 Z M 265.125 297.042969 L 247.171875 297.042969 L 247.171875 265.898438 L 263.101562 265.898438 C 268.597656 265.898438 272.378906 267.460938 274.445312 270.574219 C 276.082031 272.988281 276.933594 276.734375 276.933594 281.878906 C 276.933594 291.984375 273.011719 297.042969 265.125 297.042969 Z M 265.125 297.042969 " fill-opacity="1" fill-rule="nonzero"/></svg>