<svg xmlns="http://www.w3.org/2000/svg" xmlns:xlink="http://www.w3.org/1999/xlink" width="500" zoomAndPan="magnify" viewBox="0 0 375 374.999991" height="500" preserveAspectRatio="xMidYMid meet" version="1.0"><defs><clipPath id="2dcfc0cf9a"><path d="M 43.433594 11.144531 L 331 11.144531 L 331 350.144531 L 43.433594 350.144531 Z M 43.433594 11.144531 " clip-rule="nonzero"/></clipPath></defs><rect x="-37.5" width="450" fill="#ffffff" y="-37.499999" height="449.999989" fill-opacity="1"/><rect x="-37.5" width="450" fill="#ffffff" y="-37.499999" height="449.999989" fill-opacity="1"/><rect x="-37.5" width="450" fill="#ffffff" y="-37.499999" height="449.999989" fill-opacity="1"/><g clip-path="url(#2dcfc0cf9a)"><path fill="#000000" d="M 260.5625 11.144531 L 113.742188 11.144531 C 113.1875 11.144531 112.636719 11.175781 112.085938 11.230469 C 111.53125 11.285156 110.984375 11.367188 110.441406 11.476562 C 109.898438 11.585938 109.363281 11.722656 108.832031 11.886719 C 108.300781 12.046875 107.78125 12.234375 107.269531 12.449219 C 106.757812 12.660156 106.253906 12.898438 105.765625 13.160156 C 105.277344 13.421875 104.804688 13.707031 104.34375 14.015625 C 103.882812 14.324219 103.4375 14.65625 103.007812 15.007812 C 102.582031 15.359375 102.171875 15.730469 101.777344 16.121094 C 101.386719 16.515625 101.015625 16.925781 100.664062 17.355469 C 100.3125 17.78125 99.980469 18.226562 99.671875 18.6875 C 99.363281 19.148438 99.078125 19.625 98.816406 20.113281 C 98.554688 20.601562 98.316406 21.101562 98.105469 21.613281 C 97.890625 22.128906 97.703125 22.648438 97.542969 23.179688 C 97.382812 23.710938 97.246094 24.246094 97.136719 24.789062 C 97.027344 25.335938 96.945312 25.882812 96.886719 26.433594 C 96.832031 26.984375 96.804688 27.539062 96.800781 28.09375 L 96.800781 220.195312 L 108.097656 220.195312 L 108.097656 78.945312 L 277.503906 78.945312 L 277.503906 28.09375 C 277.5 27.539062 277.472656 26.984375 277.417969 26.433594 C 277.359375 25.882812 277.277344 25.335938 277.167969 24.789062 C 277.058594 24.246094 276.925781 23.710938 276.761719 23.179688 C 276.601562 22.648438 276.414062 22.128906 276.199219 21.617188 C 275.988281 21.101562 275.75 20.601562 275.488281 20.113281 C 275.226562 19.625 274.941406 19.148438 274.632812 18.6875 C 274.324219 18.226562 273.996094 17.78125 273.640625 17.355469 C 273.289062 16.925781 272.917969 16.515625 272.527344 16.125 C 272.132812 15.730469 271.722656 15.359375 271.296875 15.007812 C 270.867188 14.65625 270.421875 14.324219 269.960938 14.015625 C 269.5 13.707031 269.027344 13.421875 268.539062 13.160156 C 268.050781 12.898438 267.550781 12.660156 267.039062 12.449219 C 266.527344 12.234375 266.003906 12.046875 265.472656 11.886719 C 264.945312 11.722656 264.40625 11.585938 263.863281 11.476562 C 263.320312 11.367188 262.773438 11.285156 262.222656 11.230469 C 261.667969 11.175781 261.117188 11.144531 260.5625 11.144531 Z M 215.386719 50.695312 L 158.917969 50.695312 C 158.554688 50.683594 158.195312 50.640625 157.839844 50.558594 C 157.484375 50.480469 157.136719 50.367188 156.804688 50.21875 C 156.46875 50.074219 156.152344 49.898438 155.855469 49.691406 C 155.554688 49.480469 155.277344 49.246094 155.023438 48.984375 C 154.769531 48.722656 154.542969 48.441406 154.34375 48.136719 C 154.144531 47.832031 153.976562 47.507812 153.839844 47.171875 C 153.703125 46.832031 153.597656 46.484375 153.527344 46.128906 C 153.457031 45.769531 153.421875 45.410156 153.421875 45.042969 C 153.421875 44.679688 153.457031 44.316406 153.527344 43.960938 C 153.597656 43.601562 153.703125 43.253906 153.839844 42.917969 C 153.976562 42.578125 154.144531 42.257812 154.34375 41.953125 C 154.542969 41.648438 154.769531 41.363281 155.023438 41.101562 C 155.277344 40.839844 155.554688 40.605469 155.855469 40.398438 C 156.152344 40.191406 156.46875 40.015625 156.804688 39.867188 C 157.136719 39.722656 157.484375 39.609375 157.839844 39.527344 C 158.195312 39.449219 158.554688 39.402344 158.917969 39.394531 L 215.386719 39.394531 C 215.75 39.402344 216.113281 39.449219 216.46875 39.527344 C 216.824219 39.609375 217.167969 39.722656 217.5 39.867188 C 217.835938 40.015625 218.152344 40.191406 218.453125 40.398438 C 218.75 40.605469 219.027344 40.839844 219.28125 41.101562 C 219.535156 41.363281 219.761719 41.648438 219.960938 41.953125 C 220.160156 42.257812 220.328125 42.578125 220.46875 42.917969 C 220.605469 43.253906 220.707031 43.601562 220.777344 43.960938 C 220.847656 44.316406 220.882812 44.679688 220.882812 45.042969 C 220.882812 45.410156 220.847656 45.769531 220.777344 46.128906 C 220.707031 46.484375 220.605469 46.832031 220.46875 47.171875 C 220.328125 47.507812 220.160156 47.832031 219.960938 48.136719 C 219.761719 48.441406 219.535156 48.722656 219.28125 48.984375 C 219.027344 49.246094 218.75 49.480469 218.453125 49.691406 C 218.152344 49.898438 217.835938 50.074219 217.5 50.21875 C 217.167969 50.367188 216.824219 50.480469 216.46875 50.558594 C 216.113281 50.640625 215.75 50.683594 215.386719 50.695312 Z M 266.210938 141.09375 L 266.210938 282.34375 L 96.800781 282.34375 L 96.800781 333.195312 C 96.804688 333.75 96.832031 334.300781 96.886719 334.855469 C 96.945312 335.40625 97.027344 335.953125 97.136719 336.496094 C 97.246094 337.042969 97.382812 337.578125 97.542969 338.109375 C 97.703125 338.640625 97.890625 339.160156 98.105469 339.671875 C 98.316406 340.183594 98.554688 340.683594 98.816406 341.175781 C 99.078125 341.664062 99.363281 342.136719 99.671875 342.597656 C 99.980469 343.058594 100.3125 343.503906 100.664062 343.933594 C 101.015625 344.363281 101.386719 344.773438 101.777344 345.164062 C 102.171875 345.558594 102.582031 345.929688 103.007812 346.28125 C 103.4375 346.632812 103.882812 346.964844 104.34375 347.273438 C 104.804688 347.582031 105.277344 347.867188 105.765625 348.128906 C 106.253906 348.390625 106.757812 348.628906 107.269531 348.839844 C 107.78125 349.054688 108.300781 349.242188 108.832031 349.402344 C 109.363281 349.566406 109.898438 349.699219 110.441406 349.808594 C 110.984375 349.917969 111.53125 350.003906 112.085938 350.058594 C 112.636719 350.113281 113.1875 350.140625 113.742188 350.144531 L 260.5625 350.144531 C 261.117188 350.140625 261.667969 350.113281 262.222656 350.058594 C 262.773438 350.003906 263.320312 349.917969 263.863281 349.808594 C 264.40625 349.699219 264.945312 349.566406 265.472656 349.402344 C 266.003906 349.242188 266.527344 349.054688 267.039062 348.839844 C 267.550781 348.628906 268.050781 348.390625 268.539062 348.128906 C 269.027344 347.867188 269.5 347.582031 269.960938 347.273438 C 270.421875 346.964844 270.867188 346.632812 271.296875 346.28125 C 271.722656 345.929688 272.132812 345.558594 272.527344 345.164062 C 272.917969 344.773438 273.289062 344.363281 273.640625 343.933594 C 273.996094 343.503906 274.324219 343.058594 274.632812 342.597656 C 274.941406 342.136719 275.226562 341.664062 275.488281 341.175781 C 275.75 340.683594 275.988281 340.183594 276.199219 339.671875 C 276.414062 339.160156 276.601562 338.640625 276.761719 338.109375 C 276.925781 337.578125 277.058594 337.042969 277.167969 336.496094 C 277.277344 335.953125 277.359375 335.40625 277.417969 334.855469 C 277.472656 334.300781 277.5 333.75 277.503906 333.195312 L 277.503906 141.09375 Z M 187.152344 333.191406 C 164.566406 333.496094 164.566406 298.988281 187.152344 299.296875 C 209.738281 298.992188 209.742188 333.5 187.152344 333.191406 Z M 187.152344 321.894531 C 186.78125 321.894531 186.414062 321.855469 186.050781 321.785156 C 185.6875 321.710938 185.335938 321.605469 184.992188 321.464844 C 184.648438 321.320312 184.324219 321.148438 184.015625 320.941406 C 183.707031 320.734375 183.421875 320.5 183.160156 320.238281 C 182.898438 319.976562 182.664062 319.691406 182.457031 319.382812 C 182.253906 319.074219 182.078125 318.75 181.9375 318.40625 C 181.792969 318.0625 181.6875 317.710938 181.613281 317.347656 C 181.542969 316.984375 181.507812 316.617188 181.507812 316.246094 C 181.507812 315.875 181.542969 315.507812 181.613281 315.140625 C 181.6875 314.777344 181.792969 314.425781 181.9375 314.082031 C 182.078125 313.738281 182.253906 313.414062 182.457031 313.105469 C 182.664062 312.796875 182.898438 312.511719 183.160156 312.25 C 183.421875 311.988281 183.707031 311.753906 184.015625 311.546875 C 184.324219 311.339844 184.648438 311.167969 184.992188 311.023438 C 185.335938 310.882812 185.6875 310.777344 186.050781 310.703125 C 186.414062 310.632812 186.78125 310.59375 187.152344 310.59375 C 187.523438 310.59375 187.890625 310.628906 188.253906 310.703125 C 188.617188 310.777344 188.96875 310.882812 189.3125 311.023438 C 189.65625 311.167969 189.980469 311.339844 190.289062 311.546875 C 190.597656 311.753906 190.882812 311.988281 191.144531 312.25 C 191.40625 312.511719 191.640625 312.796875 191.847656 313.105469 C 192.054688 313.414062 192.226562 313.738281 192.367188 314.082031 C 192.511719 314.425781 192.617188 314.777344 192.691406 315.140625 C 192.761719 315.503906 192.800781 315.871094 192.800781 316.242188 C 192.800781 316.613281 192.761719 316.980469 192.691406 317.347656 C 192.617188 317.710938 192.511719 318.0625 192.371094 318.40625 C 192.226562 318.75 192.054688 319.074219 191.847656 319.382812 C 191.640625 319.691406 191.40625 319.976562 191.144531 320.238281 C 190.882812 320.5 190.597656 320.734375 190.289062 320.941406 C 189.980469 321.148438 189.65625 321.320312 189.3125 321.464844 C 188.972656 321.605469 188.617188 321.710938 188.253906 321.785156 C 187.890625 321.855469 187.523438 321.894531 187.152344 321.894531 Z M 187.160156 118.5 C 104.332031 117.375 104.332031 243.902344 187.152344 242.785156 C 269.972656 243.914062 269.972656 117.382812 187.160156 118.5 Z M 187.152344 225.839844 C 126.917969 226.648438 126.917969 134.628906 187.15625 135.449219 C 247.386719 134.636719 247.386719 226.65625 187.152344 225.839844 Z M 187.152344 146.746094 C 141.976562 146.136719 141.976562 215.15625 187.15625 214.539062 C 232.328125 215.148438 232.328125 146.132812 187.152344 146.746094 Z M 190.675781 201.238281 L 190.675781 206.261719 L 181.082031 206.617188 L 182.386719 201.890625 C 178.492188 201.480469 174.792969 200.40625 171.28125 198.671875 L 175.097656 187.960938 C 178.304688 191.378906 194.769531 191.292969 185.703125 185.847656 C 184.894531 185.8125 184.097656 185.707031 183.3125 185.523438 C 182.527344 185.339844 181.761719 185.089844 181.023438 184.765625 C 180.28125 184.441406 179.578125 184.050781 178.914062 183.59375 C 178.246094 183.140625 177.625 182.625 177.054688 182.054688 C 176.484375 181.484375 175.96875 180.863281 175.511719 180.199219 C 175.058594 179.53125 174.667969 178.828125 174.339844 178.089844 C 174.015625 177.347656 173.761719 176.585938 173.578125 175.796875 C 173.394531 175.011719 173.289062 174.214844 173.253906 173.40625 C 173.21875 172.601562 173.257812 171.796875 173.375 170.996094 C 173.488281 170.195312 173.675781 169.414062 173.9375 168.648438 C 174.199219 167.886719 174.527344 167.152344 174.925781 166.449219 C 175.324219 165.746094 175.785156 165.085938 176.304688 164.464844 C 176.824219 163.847656 177.398438 163.285156 178.023438 162.773438 C 178.648438 162.261719 179.316406 161.816406 180.027344 161.429688 C 180.738281 161.042969 181.476562 160.726562 182.246094 160.476562 C 183.011719 160.230469 183.796875 160.054688 184.597656 159.953125 L 184.597656 155.023438 L 194.195312 154.671875 L 192.941406 159.347656 C 195.875 159.5 198.707031 160.121094 201.433594 161.210938 L 198.46875 172.824219 C 195.242188 171.320312 184.597656 167.691406 184.875 173.351562 C 192.335938 175.027344 202.761719 177.332031 202.988281 186.953125 C 203.007812 187.816406 202.945312 188.675781 202.804688 189.527344 C 202.664062 190.378906 202.445312 191.210938 202.152344 192.019531 C 201.859375 192.832031 201.496094 193.609375 201.0625 194.355469 C 200.625 195.101562 200.128906 195.800781 199.5625 196.453125 C 199 197.105469 198.382812 197.703125 197.710938 198.242188 C 197.039062 198.785156 196.320312 199.257812 195.5625 199.667969 C 194.800781 200.074219 194.011719 200.410156 193.191406 200.675781 C 192.371094 200.941406 191.53125 201.125 190.675781 201.238281 Z M 327.304688 118.148438 L 298.363281 146.113281 C 297.960938 146.492188 297.515625 146.804688 297.023438 147.050781 C 296.53125 147.296875 296.015625 147.46875 295.472656 147.566406 C 294.929688 147.664062 294.386719 147.679688 293.839844 147.617188 C 293.292969 147.554688 292.765625 147.417969 292.257812 147.203125 C 291.75 146.988281 291.285156 146.703125 290.859375 146.351562 C 290.4375 146 290.070312 145.597656 289.761719 145.140625 C 289.457031 144.683594 289.21875 144.191406 289.054688 143.667969 C 288.890625 143.140625 288.804688 142.601562 288.796875 142.050781 L 288.796875 129.792969 L 237.976562 129.792969 C 237.234375 129.792969 236.5 129.71875 235.773438 129.574219 C 235.046875 129.429688 234.339844 129.214844 233.65625 128.929688 C 232.96875 128.644531 232.320312 128.296875 231.703125 127.886719 C 231.085938 127.472656 230.515625 127.003906 229.992188 126.480469 C 229.46875 125.957031 229 125.386719 228.589844 124.769531 C 228.175781 124.152344 227.828125 123.5 227.542969 122.816406 C 227.261719 122.132812 227.046875 121.425781 226.898438 120.699219 C 226.753906 119.96875 226.683594 119.234375 226.679688 118.492188 L 226.679688 101.542969 C 226.683594 100.800781 226.753906 100.066406 226.898438 99.339844 C 227.046875 98.613281 227.261719 97.90625 227.542969 97.222656 C 227.828125 96.535156 228.175781 95.886719 228.589844 95.269531 C 229 94.652344 229.46875 94.082031 229.992188 93.558594 C 230.515625 93.03125 231.085938 92.566406 231.703125 92.152344 C 232.320312 91.738281 232.96875 91.390625 233.65625 91.109375 C 234.339844 90.824219 235.046875 90.609375 235.773438 90.464844 C 236.5 90.316406 237.234375 90.246094 237.976562 90.242188 L 288.796875 90.242188 L 288.796875 77.988281 C 288.804688 77.4375 288.890625 76.898438 289.054688 76.371094 C 289.21875 75.847656 289.457031 75.355469 289.761719 74.898438 C 290.070312 74.441406 290.4375 74.035156 290.859375 73.683594 C 291.285156 73.335938 291.75 73.050781 292.257812 72.835938 C 292.765625 72.621094 293.292969 72.480469 293.839844 72.421875 C 294.386719 72.359375 294.929688 72.375 295.472656 72.472656 C 296.015625 72.570312 296.53125 72.742188 297.023438 72.988281 C 297.515625 73.234375 297.960938 73.546875 298.363281 73.921875 L 327.304688 101.890625 C 327.847656 102.421875 328.332031 102.996094 328.757812 103.621094 C 329.1875 104.25 329.546875 104.910156 329.84375 105.609375 C 330.136719 106.308594 330.359375 107.027344 330.507812 107.769531 C 330.660156 108.511719 330.734375 109.261719 330.734375 110.019531 C 330.734375 110.777344 330.660156 111.527344 330.507812 112.269531 C 330.359375 113.015625 330.136719 113.734375 329.84375 114.433594 C 329.546875 115.128906 329.1875 115.792969 328.757812 116.417969 C 328.332031 117.042969 327.847656 117.621094 327.304688 118.148438 Z M 147.625 242.792969 L 147.625 259.742188 C 147.625 260.484375 147.550781 261.21875 147.40625 261.949219 C 147.261719 262.675781 147.046875 263.382812 146.761719 264.066406 C 146.476562 264.75 146.128906 265.402344 145.71875 266.019531 C 145.304688 266.636719 144.835938 267.207031 144.3125 267.730469 C 143.789062 268.253906 143.21875 268.722656 142.601562 269.136719 C 141.984375 269.546875 141.335938 269.894531 140.652344 270.179688 C 139.964844 270.464844 139.261719 270.679688 138.53125 270.824219 C 137.804688 270.96875 137.070312 271.042969 136.332031 271.042969 L 85.507812 271.042969 L 85.507812 283.300781 C 85.5 283.851562 85.414062 284.390625 85.25 284.917969 C 85.085938 285.441406 84.851562 285.933594 84.542969 286.390625 C 84.234375 286.847656 83.871094 287.25 83.445312 287.601562 C 83.019531 287.953125 82.554688 288.234375 82.046875 288.453125 C 81.542969 288.667969 81.015625 288.804688 80.46875 288.867188 C 79.917969 288.929688 79.375 288.910156 78.832031 288.816406 C 78.292969 288.71875 77.773438 288.546875 77.28125 288.300781 C 76.789062 288.054688 76.34375 287.742188 75.941406 287.363281 L 47 259.394531 C 46.457031 258.867188 45.972656 258.292969 45.546875 257.664062 C 45.117188 257.039062 44.757812 256.378906 44.464844 255.679688 C 44.167969 254.980469 43.945312 254.261719 43.796875 253.519531 C 43.644531 252.777344 43.570312 252.027344 43.570312 251.269531 C 43.570312 250.511719 43.644531 249.761719 43.796875 249.019531 C 43.945312 248.277344 44.167969 247.554688 44.464844 246.859375 C 44.757812 246.160156 45.117188 245.496094 45.546875 244.871094 C 45.972656 244.246094 46.457031 243.667969 47 243.140625 L 75.941406 215.171875 C 76.34375 214.796875 76.789062 214.484375 77.28125 214.238281 C 77.773438 213.992188 78.292969 213.820312 78.832031 213.722656 C 79.375 213.628906 79.917969 213.609375 80.464844 213.671875 C 81.015625 213.734375 81.539062 213.871094 82.046875 214.089844 C 82.554688 214.304688 83.019531 214.585938 83.445312 214.9375 C 83.867188 215.289062 84.234375 215.691406 84.542969 216.148438 C 84.847656 216.605469 85.085938 217.097656 85.25 217.621094 C 85.414062 218.148438 85.5 218.6875 85.507812 219.238281 L 85.507812 231.492188 L 136.332031 231.492188 C 137.070312 231.496094 137.804688 231.566406 138.53125 231.714844 C 139.261719 231.859375 139.964844 232.074219 140.652344 232.359375 C 141.335938 232.640625 141.984375 232.988281 142.601562 233.402344 C 143.21875 233.816406 143.789062 234.28125 144.3125 234.808594 C 144.835938 235.332031 145.304688 235.902344 145.71875 236.519531 C 146.128906 237.136719 146.476562 237.785156 146.761719 238.472656 C 147.046875 239.15625 147.261719 239.863281 147.40625 240.589844 C 147.550781 241.316406 147.625 242.050781 147.625 242.792969 Z M 147.625 242.792969 " fill-opacity="1" fill-rule="nonzero"/></g></svg>