<svg xmlns="http://www.w3.org/2000/svg" xmlns:xlink="http://www.w3.org/1999/xlink" width="500" zoomAndPan="magnify" viewBox="0 0 375 374.999991" height="500" preserveAspectRatio="xMidYMid meet" version="1.0"><defs><clipPath id="7361172abd"><path d="M 12 37.5 L 355 37.5 L 355 318 L 12 318 Z M 12 37.5 " clip-rule="nonzero"/></clipPath></defs><rect x="-37.5" width="450" fill="#ffffff" y="-37.499999" height="449.999989" fill-opacity="1"/><rect x="-37.5" width="450" fill="#ffffff" y="-37.499999" height="449.999989" fill-opacity="1"/><rect x="-37.5" width="450" fill="#ffffff" y="-37.499999" height="449.999989" fill-opacity="1"/><path fill="#000000" d="M 156.109375 229.5625 C 156.367188 230.539062 157.214844 231.175781 158.144531 231.175781 C 158.316406 231.175781 158.484375 231.175781 158.652344 231.089844 C 160.222656 230.710938 162.128906 230.199219 164.164062 229.734375 C 167.003906 236.949219 171.242188 242.082031 176.878906 244.925781 C 180.523438 246.792969 184.210938 247.386719 187.386719 247.386719 C 190.734375 247.386719 193.492188 246.707031 195.058594 246.070312 C 198.789062 244.5 202.984375 240.808594 203.917969 236.097656 C 204.128906 234.953125 203.40625 233.851562 202.265625 233.59375 C 201.078125 233.339844 200.019531 234.105469 199.761719 235.25 C 199.171875 238.261719 196.117188 240.980469 193.40625 242.125 C 191.5 242.929688 185.101562 244.332031 178.785156 241.105469 C 174.25 238.816406 170.734375 234.613281 168.316406 228.671875 C 177.046875 226.59375 187.558594 224.21875 193.363281 223.15625 C 194.507812 222.945312 195.269531 221.839844 195.058594 220.695312 C 194.847656 219.550781 193.746094 218.785156 192.601562 218.996094 C 186.539062 220.101562 175.816406 222.519531 166.917969 224.683594 C 166.664062 223.792969 166.367188 222.859375 166.15625 221.882812 C 165.945312 220.90625 165.816406 220.058594 165.6875 219.167969 C 174.378906 216.917969 184.421875 214.371094 190.144531 213.3125 C 191.289062 213.097656 192.050781 211.996094 191.839844 210.851562 C 191.625 209.703125 190.523438 208.941406 189.378906 209.152344 C 183.617188 210.214844 173.828125 212.675781 165.222656 214.921875 C 164.839844 205.585938 168.742188 199.859375 173.234375 197.566406 C 173.699219 197.3125 174.121094 197.101562 174.546875 196.847656 C 177.683594 195.148438 179.929688 193.875 188.488281 197.90625 C 189.550781 198.417969 190.820312 197.949219 191.328125 196.886719 C 191.839844 195.828125 191.371094 194.554688 190.3125 194.046875 C 180.566406 189.460938 176.921875 190.691406 172.554688 193.113281 L 171.324219 193.75 C 165.433594 196.761719 160.222656 204.101562 161.027344 215.984375 C 160.644531 216.070312 160.265625 216.195312 159.882812 216.28125 L 154.078125 217.808594 C 152.933594 218.105469 152.253906 219.253906 152.550781 220.398438 C 152.804688 221.375 153.652344 222.011719 154.585938 222.011719 C 154.753906 222.011719 154.925781 222.011719 155.09375 221.925781 L 160.984375 220.398438 C 161.195312 220.355469 161.410156 220.269531 161.621094 220.226562 C 161.789062 221.121094 161.832031 221.925781 162.085938 222.859375 C 162.300781 223.835938 162.59375 224.769531 162.851562 225.660156 C 160.941406 226.125 159.164062 226.59375 157.679688 226.976562 C 156.492188 227.273438 155.816406 228.460938 156.109375 229.5625 Z M 156.109375 229.5625 " fill-opacity="1" fill-rule="nonzero"/><path fill="#000000" d="M 86.308594 197.566406 C 86.566406 197.566406 86.777344 197.523438 87.03125 197.441406 C 110.636719 188.996094 130.511719 181.570312 149.753906 174.398438 C 182.386719 162.21875 213.28125 150.71875 254.730469 137.097656 C 257.996094 140.535156 263.25 142.996094 267.996094 142.996094 C 269.351562 142.996094 270.667969 142.78125 271.894531 142.316406 L 273.632812 146.730469 C 275.753906 152.160156 277.023438 155.472656 279.4375 160.859375 C 279.777344 161.667969 280.582031 162.132812 281.386719 162.132812 C 281.683594 162.132812 281.980469 162.089844 282.234375 161.964844 C 283.296875 161.496094 283.804688 160.222656 283.296875 159.164062 C 280.964844 153.859375 279.695312 150.589844 277.574219 145.203125 L 275.285156 139.386719 C 275.199219 139.175781 275.074219 138.964844 274.90625 138.792969 C 274.820312 138.625 274.777344 138.410156 274.648438 138.242188 C 273.972656 137.308594 272.660156 137.054688 271.683594 137.734375 C 267.910156 140.40625 260.242188 137.519531 257.019531 133.363281 C 257.019531 133.363281 256.976562 133.320312 256.976562 133.320312 C 256.894531 133.191406 256.765625 133.109375 256.636719 133.023438 C 256.554688 132.9375 256.46875 132.851562 256.382812 132.8125 C 256.257812 132.726562 256.085938 132.726562 255.960938 132.683594 C 255.832031 132.640625 255.75 132.597656 255.621094 132.597656 C 255.492188 132.597656 255.367188 132.597656 255.238281 132.640625 C 255.070312 132.640625 254.941406 132.640625 254.773438 132.683594 C 254.773438 132.683594 254.730469 132.683594 254.730469 132.683594 C 212.519531 146.515625 181.328125 158.144531 148.269531 170.492188 C 129.03125 177.664062 109.152344 185.089844 85.589844 193.492188 C 84.488281 193.875 83.894531 195.105469 84.320312 196.210938 C 84.65625 197.015625 85.460938 197.566406 86.308594 197.566406 Z M 86.308594 197.566406 " fill-opacity="1" fill-rule="nonzero"/><path fill="#000000" d="M 218.960938 208.8125 C 219.171875 209.789062 220.0625 210.425781 221.039062 210.425781 C 221.207031 210.425781 221.378906 210.425781 221.546875 210.382812 C 222.691406 210.128906 223.371094 208.984375 223.113281 207.835938 C 221.886719 202.660156 212.730469 186.660156 204.636719 182.332031 C 189.378906 174.101562 171.582031 174.355469 157 182.925781 C 148.226562 188.105469 141.363281 196.761719 138.140625 206.691406 C 137.804688 207.792969 138.394531 208.984375 139.496094 209.363281 C 140.601562 209.703125 141.785156 209.109375 142.167969 208.007812 C 145.050781 199.050781 151.238281 191.246094 159.121094 186.578125 C 172.386719 178.769531 188.660156 178.554688 202.601562 186.066406 C 209.214844 189.589844 217.902344 204.316406 218.960938 208.8125 Z M 218.960938 208.8125 " fill-opacity="1" fill-rule="nonzero"/><path fill="#000000" d="M 136.53125 213.820312 C 135.9375 218.277344 136.148438 222.6875 137.125 226.890625 C 137.335938 227.867188 138.226562 228.546875 139.203125 228.546875 C 139.371094 228.546875 139.539062 228.546875 139.710938 228.503906 C 140.855469 228.25 141.574219 227.101562 141.277344 225.957031 C 140.386719 222.265625 140.21875 218.359375 140.726562 214.414062 C 140.898438 213.269531 140.050781 212.207031 138.90625 212.039062 C 137.71875 211.824219 136.699219 212.632812 136.53125 213.820312 Z M 136.53125 213.820312 " fill-opacity="1" fill-rule="nonzero"/><path fill="#000000" d="M 308.9375 151.3125 C 308.425781 150.25 307.15625 149.785156 306.097656 150.335938 C 305.035156 150.847656 304.613281 152.117188 305.121094 153.179688 L 308.046875 159.289062 C 308.425781 160.054688 309.148438 160.480469 309.953125 160.480469 C 310.25 160.480469 310.589844 160.394531 310.886719 160.265625 C 311.945312 159.757812 312.367188 158.484375 311.859375 157.421875 Z M 308.9375 151.3125 " fill-opacity="1" fill-rule="nonzero"/><path fill="#000000" d="M 93.726562 156.871094 C 94.191406 156.871094 94.617188 156.746094 95 156.445312 L 101.1875 151.695312 C 102.117188 150.972656 102.289062 149.65625 101.566406 148.722656 C 100.847656 147.789062 99.53125 147.621094 98.601562 148.34375 L 92.414062 153.09375 C 91.480469 153.816406 91.3125 155.132812 92.03125 156.066406 C 92.457031 156.617188 93.089844 156.871094 93.726562 156.871094 Z M 93.726562 156.871094 " fill-opacity="1" fill-rule="nonzero"/><path fill="#000000" d="M 193.492188 115.15625 C 191.160156 115.964844 189 117.152344 187.050781 118.722656 C 186.160156 119.441406 185.988281 120.800781 186.753906 121.691406 C 187.175781 122.203125 187.769531 122.5 188.40625 122.5 C 188.871094 122.5 189.335938 122.328125 189.71875 122.03125 C 191.246094 120.800781 192.984375 119.824219 194.847656 119.1875 C 195.949219 118.808594 196.542969 117.617188 196.160156 116.472656 C 195.820312 115.371094 194.59375 114.777344 193.492188 115.15625 Z M 193.492188 115.15625 " fill-opacity="1" fill-rule="nonzero"/><path fill="#000000" d="M 73.300781 202.363281 C 73.554688 202.363281 73.851562 202.320312 74.105469 202.191406 L 78.976562 200.199219 C 80.039062 199.730469 80.589844 198.5 80.121094 197.441406 C 79.65625 196.335938 78.425781 195.828125 77.367188 196.292969 L 72.496094 198.289062 C 71.433594 198.753906 70.882812 199.984375 71.351562 201.046875 C 71.648438 201.851562 72.453125 202.363281 73.300781 202.363281 Z M 73.300781 202.363281 " fill-opacity="1" fill-rule="nonzero"/><path fill="#000000" d="M 282.109375 167.949219 L 283.507812 170.832031 C 283.890625 171.597656 284.609375 172.019531 285.414062 172.019531 C 285.710938 172.019531 286.050781 171.9375 286.347656 171.808594 C 287.40625 171.300781 287.832031 170.027344 287.320312 168.964844 L 285.921875 166.082031 C 285.414062 165.019531 284.144531 164.59375 283.082031 165.105469 C 282.066406 165.613281 281.601562 166.886719 282.109375 167.949219 Z M 282.109375 167.949219 " fill-opacity="1" fill-rule="nonzero"/><g clip-path="url(#7361172abd)"><path fill="#000000" d="M 354.367188 168.5 C 354.453125 168.371094 354.496094 168.285156 354.539062 168.117188 C 354.582031 167.988281 354.582031 167.863281 354.582031 167.734375 C 354.582031 167.609375 354.621094 167.480469 354.621094 167.3125 C 354.621094 167.183594 354.539062 167.054688 354.496094 166.886719 C 354.453125 166.757812 354.453125 166.632812 354.410156 166.546875 L 293.636719 44.800781 C 293.636719 44.757812 293.59375 44.757812 293.59375 44.757812 C 293.59375 44.714844 293.59375 44.714844 293.550781 44.671875 C 293.46875 44.542969 293.382812 44.5 293.296875 44.375 C 293.210938 44.289062 293.128906 44.164062 293.042969 44.078125 C 292.917969 43.992188 292.789062 43.949219 292.660156 43.867188 C 292.535156 43.824219 292.449219 43.738281 292.324219 43.695312 C 292.195312 43.652344 292.070312 43.652344 291.898438 43.652344 C 291.773438 43.652344 291.644531 43.609375 291.519531 43.609375 C 291.390625 43.609375 291.222656 43.695312 291.09375 43.738281 C 290.964844 43.78125 290.882812 43.78125 290.753906 43.824219 C 290.710938 43.824219 290.710938 43.867188 290.710938 43.867188 C 290.671875 43.867188 290.671875 43.867188 290.628906 43.90625 L 243.882812 71.320312 L 218.835938 38.390625 C 218.835938 38.390625 218.792969 38.390625 218.792969 38.347656 C 218.792969 38.304688 218.792969 38.304688 218.75 38.304688 C 218.664062 38.222656 218.539062 38.136719 218.453125 38.09375 C 218.328125 38.007812 218.242188 37.882812 218.113281 37.839844 C 217.988281 37.796875 217.859375 37.753906 217.734375 37.710938 C 217.605469 37.667969 217.480469 37.628906 217.308594 37.585938 C 217.183594 37.585938 217.054688 37.585938 216.925781 37.628906 C 216.800781 37.628906 216.671875 37.628906 216.503906 37.667969 C 216.375 37.710938 216.25 37.796875 216.121094 37.839844 C 215.996094 37.882812 215.910156 37.925781 215.785156 38.007812 C 215.785156 38.007812 215.785156 38.050781 215.742188 38.050781 C 215.742188 38.050781 215.699219 38.050781 215.699219 38.09375 L 13.332031 206.519531 C 13.203125 206.605469 13.117188 206.777344 13.035156 206.902344 C 12.949219 206.988281 12.863281 207.074219 12.820312 207.199219 C 12.738281 207.328125 12.738281 207.496094 12.695312 207.625 C 12.652344 207.753906 12.609375 207.835938 12.609375 207.964844 C 12.609375 208.089844 12.652344 208.261719 12.652344 208.386719 C 12.652344 208.515625 12.652344 208.644531 12.695312 208.769531 C 12.738281 208.898438 12.820312 209.023438 12.90625 209.152344 C 12.992188 209.28125 12.992188 209.40625 13.078125 209.492188 L 69.867188 276.160156 L 86.902344 316.9375 C 87.03125 317.195312 87.199219 317.363281 87.414062 317.53125 C 87.496094 317.617188 87.539062 317.789062 87.667969 317.832031 C 88.003906 318.085938 88.429688 318.210938 88.851562 318.210938 C 89.066406 318.210938 89.277344 318.167969 89.488281 318.128906 L 121.527344 307.773438 C 121.570312 307.898438 121.570312 308.070312 121.65625 308.199219 L 125.132812 314.476562 C 125.257812 314.691406 125.46875 314.859375 125.640625 315.03125 C 125.722656 315.113281 125.808594 315.242188 125.894531 315.285156 C 126.234375 315.453125 126.570312 315.582031 126.953125 315.582031 C 127.292969 315.582031 127.632812 315.496094 127.929688 315.328125 L 176.582031 290.035156 C 176.664062 289.992188 176.707031 289.949219 176.75 289.90625 L 327.203125 241.234375 C 327.203125 241.234375 327.203125 241.234375 327.246094 241.234375 C 327.246094 241.234375 327.285156 241.234375 327.285156 241.234375 C 327.414062 241.191406 327.542969 241.0625 327.667969 241.023438 C 327.753906 240.9375 327.878906 240.894531 327.964844 240.851562 C 328.09375 240.765625 328.132812 240.640625 328.261719 240.511719 C 328.347656 240.425781 328.429688 240.34375 328.472656 240.214844 C 328.558594 240.089844 328.558594 239.960938 328.601562 239.789062 C 328.644531 239.664062 328.683594 239.535156 328.683594 239.410156 C 328.683594 239.238281 328.644531 239.113281 328.644531 238.941406 C 328.644531 238.816406 328.644531 238.730469 328.601562 238.601562 C 328.601562 238.601562 328.601562 238.601562 328.601562 238.558594 C 328.601562 238.558594 328.601562 238.519531 328.601562 238.519531 C 326.734375 233.296875 323.9375 225.871094 320.632812 217.214844 L 346.441406 204.058594 C 346.570312 204.019531 346.65625 203.890625 346.738281 203.804688 C 346.867188 203.71875 346.992188 203.636719 347.078125 203.550781 C 347.164062 203.464844 347.207031 203.339844 347.289062 203.210938 C 347.375 203.085938 347.460938 202.957031 347.503906 202.828125 C 347.546875 202.703125 347.546875 202.574219 347.546875 202.449219 C 347.546875 202.320312 347.585938 202.152344 347.585938 202.023438 C 347.585938 201.894531 347.503906 201.769531 347.503906 201.640625 C 347.460938 201.515625 347.460938 201.386719 347.417969 201.257812 L 336.609375 178.769531 L 353.5625 169.347656 C 353.691406 169.304688 353.734375 169.179688 353.859375 169.09375 C 353.988281 169.007812 354.113281 168.921875 354.199219 168.839844 C 354.242188 168.753906 354.285156 168.625 354.367188 168.5 Z M 17.695312 208.429688 L 216.84375 42.761719 L 240.238281 73.527344 L 232.90625 77.8125 C 231.550781 75.945312 230.277344 74.375 229.089844 72.933594 C 227.734375 71.320312 226.464844 69.792969 225.066406 67.800781 C 224.9375 67.542969 224.769531 67.289062 224.515625 67.078125 C 223.75 66.484375 222.734375 66.484375 222.011719 66.992188 C 222.011719 66.992188 221.972656 66.992188 221.972656 66.992188 C 221.929688 67.035156 221.929688 67.078125 221.886719 67.121094 C 221.800781 67.203125 221.675781 67.246094 221.589844 67.375 C 221.125 67.839844 216.84375 70.898438 212.476562 70.515625 C 210.0625 70.304688 208.070312 69.03125 206.460938 66.652344 C 205.78125 65.675781 204.46875 65.421875 203.492188 66.101562 C 203.027344 66.441406 202.730469 66.90625 202.644531 67.417969 C 186.792969 79.9375 166.410156 95.46875 148.398438 109.175781 C 128.5625 124.28125 111.441406 137.308594 104.320312 143.292969 C 103.433594 144.054688 103.304688 145.371094 104.066406 146.261719 C 104.492188 146.773438 105.085938 147.027344 105.679688 147.027344 C 106.144531 147.027344 106.652344 146.855469 107.035156 146.515625 C 114.070312 140.617188 131.148438 127.589844 150.941406 112.527344 C 168.78125 98.945312 188.914062 83.628906 204.722656 71.152344 C 206.96875 73.402344 209.679688 74.671875 212.773438 74.757812 C 212.945312 74.757812 213.070312 74.757812 213.242188 74.757812 C 217.097656 74.757812 220.574219 73.105469 222.734375 71.703125 C 223.792969 73.144531 224.851562 74.417969 225.871094 75.605469 C 227.015625 76.964844 228.117188 78.324219 229.261719 79.894531 L 57.320312 180.804688 C 57.195312 180.890625 57.109375 180.976562 57.023438 181.058594 C 56.941406 181.144531 56.8125 181.230469 56.730469 181.316406 C 56.644531 181.441406 56.601562 181.570312 56.515625 181.695312 C 56.472656 181.824219 56.390625 181.910156 56.347656 182.035156 C 56.304688 182.164062 56.304688 182.289062 56.304688 182.417969 C 56.304688 182.546875 56.261719 182.671875 56.261719 182.84375 C 56.261719 182.96875 56.347656 183.140625 56.390625 183.265625 C 56.433594 183.394531 56.433594 183.519531 56.472656 183.605469 L 60.882812 192.007812 C 53 194.9375 46.007812 197.523438 40.285156 199.6875 C 40.285156 199.6875 40.285156 199.6875 40.242188 199.6875 C 40.242188 199.6875 40.199219 199.6875 40.199219 199.6875 C 40.074219 199.730469 39.988281 199.859375 39.859375 199.902344 C 39.734375 199.984375 39.605469 200.027344 39.523438 200.113281 C 39.4375 200.199219 39.351562 200.324219 39.269531 200.453125 C 39.183594 200.582031 39.097656 200.664062 39.054688 200.792969 C 39.011719 200.917969 38.972656 201.046875 38.972656 201.21875 C 38.929688 201.34375 38.886719 201.472656 38.886719 201.597656 C 38.886719 201.726562 38.929688 201.894531 38.972656 202.023438 C 39.011719 202.152344 38.972656 202.277344 39.011719 202.363281 C 39.011719 202.363281 39.011719 202.363281 39.011719 202.40625 C 39.011719 202.40625 39.011719 202.449219 39.011719 202.449219 L 64.441406 263.34375 Z M 64.058594 195.574219 C 64.398438 195.574219 64.738281 195.488281 65.035156 195.320312 C 65.289062 195.191406 65.5 194.980469 65.714844 194.765625 C 66.265625 194.554688 66.773438 194.386719 67.324219 194.171875 C 97.246094 183.054688 140.726562 166.886719 182.089844 151.101562 C 182.386719 151.101562 182.726562 151.015625 182.980469 150.886719 C 183.320312 150.71875 183.699219 150.507812 184.039062 150.335938 C 219.640625 136.757812 253.460938 123.515625 275.582031 114.011719 C 278.972656 122.753906 284.566406 136.96875 290.925781 153.011719 C 302.832031 183.097656 317.496094 220.226562 323.894531 237.882812 L 90.082031 313.585938 L 43.886719 202.871094 C 49.523438 200.75 56.261719 198.289062 63.765625 195.488281 C 63.890625 195.53125 63.976562 195.574219 64.058594 195.574219 Z M 270.835938 104.761719 C 271.726562 106.457031 273.210938 108.15625 275.03125 109.640625 C 260.242188 116.007812 239.941406 124.152344 217.222656 132.980469 C 220.785156 131.070312 224.386719 129.160156 227.945312 127.25 C 242.992188 119.273438 258.460938 111.042969 270.835938 104.761719 Z M 127.886719 310.699219 L 125.597656 306.542969 L 152.722656 297.757812 Z M 316.4375 206.351562 C 316.4375 206.222656 316.480469 206.140625 316.480469 206.011719 C 316.4375 203.761719 317.414062 201.472656 319.191406 199.6875 C 320.972656 197.90625 323.132812 196.804688 325.507812 196.972656 C 325.507812 196.972656 325.507812 196.972656 325.550781 196.972656 C 325.847656 197.101562 326.144531 197.226562 326.480469 197.226562 C 326.777344 197.226562 327.074219 197.183594 327.371094 197.015625 C 328.429688 196.507812 328.898438 195.277344 328.390625 194.214844 L 314.699219 164.511719 C 314.191406 163.449219 312.960938 162.980469 311.902344 163.492188 C 310.84375 164 310.378906 165.230469 310.886719 166.292969 L 323.175781 192.984375 C 320.632812 193.492188 318.21875 194.765625 316.269531 196.71875 C 315.335938 197.652344 314.574219 198.753906 313.980469 199.902344 C 307.875 184.285156 301.054688 166.972656 294.90625 151.523438 C 288.550781 135.398438 282.914062 121.183594 279.566406 112.441406 C 281.558594 113.332031 283.636719 113.800781 285.667969 113.800781 C 285.964844 113.800781 286.21875 113.714844 286.515625 113.714844 C 289.355469 120.164062 292.703125 127.039062 296.011719 133.746094 C 297.707031 137.179688 299.359375 140.578125 300.882812 143.757812 C 301.265625 144.523438 301.984375 144.945312 302.789062 144.945312 C 303.085938 144.945312 303.425781 144.863281 303.679688 144.734375 C 304.742188 144.226562 305.164062 142.953125 304.699219 141.890625 C 303.171875 138.710938 301.519531 135.3125 299.824219 131.835938 C 296.304688 124.707031 292.703125 117.363281 289.824219 110.617188 C 289.78125 110.574219 289.738281 110.53125 289.695312 110.445312 C 289.609375 110.320312 289.527344 110.191406 289.441406 110.066406 C 289.355469 109.980469 289.3125 109.894531 289.1875 109.808594 C 289.058594 109.726562 288.933594 109.640625 288.761719 109.554688 C 288.679688 109.511719 288.59375 109.472656 288.464844 109.429688 C 288.339844 109.386719 288.167969 109.34375 288 109.34375 C 287.871094 109.34375 287.746094 109.34375 287.578125 109.34375 C 287.492188 109.34375 287.449219 109.34375 287.363281 109.34375 C 283.636719 110.066406 280.328125 108.28125 278.675781 107.136719 C 275.964844 105.269531 274.269531 102.808594 274.058594 101.492188 C 274.058594 101.367188 273.972656 101.28125 273.929688 101.195312 C 273.886719 101.109375 273.886719 100.984375 273.84375 100.898438 C 273.84375 100.855469 273.800781 100.855469 273.800781 100.8125 C 273.71875 100.644531 273.589844 100.515625 273.464844 100.390625 C 273.378906 100.304688 273.335938 100.261719 273.292969 100.175781 C 273.167969 100.050781 272.996094 100.007812 272.828125 99.921875 C 272.742188 99.878906 272.65625 99.839844 272.574219 99.796875 C 272.445312 99.753906 272.277344 99.753906 272.148438 99.753906 C 272.023438 99.753906 271.851562 99.710938 271.726562 99.753906 C 271.683594 99.753906 271.640625 99.753906 271.640625 99.753906 C 271.515625 99.753906 271.429688 99.839844 271.34375 99.878906 C 271.257812 99.921875 271.132812 99.921875 271.046875 99.964844 C 258.292969 106.375 241.890625 115.113281 226.039062 123.558594 C 210.699219 131.75 194.890625 140.195312 182.34375 146.515625 C 155.261719 156.871094 127.207031 167.394531 102.542969 176.5625 L 286.515625 84.390625 L 342.714844 201.257812 L 319.109375 213.269531 C 318.261719 211.019531 317.371094 208.726562 316.4375 206.351562 Z M 329.574219 164.128906 C 330.125 162.304688 332.5 162.089844 333.515625 162.132812 C 333.515625 162.132812 333.515625 162.132812 333.558594 162.132812 C 333.769531 162.132812 333.984375 162.089844 334.195312 162.046875 C 334.238281 162.046875 334.28125 162.007812 334.320312 162.007812 C 334.40625 161.964844 334.449219 161.921875 334.535156 161.921875 C 334.703125 161.835938 334.914062 161.710938 335.042969 161.582031 C 335.085938 161.539062 335.085938 161.496094 335.128906 161.453125 C 335.253906 161.285156 335.425781 161.15625 335.507812 160.945312 C 335.550781 160.859375 335.550781 160.734375 335.59375 160.648438 C 335.636719 160.480469 335.679688 160.351562 335.71875 160.179688 C 335.71875 160.140625 335.71875 160.140625 335.71875 160.097656 C 335.71875 159.96875 335.679688 159.882812 335.679688 159.757812 C 335.679688 159.628906 335.679688 159.546875 335.636719 159.417969 C 335.636719 159.375 335.59375 159.289062 335.59375 159.246094 C 334.617188 156.277344 327.203125 140.320312 325.804688 137.902344 C 325.210938 136.882812 323.894531 136.542969 322.878906 137.140625 C 321.863281 137.734375 321.523438 139.046875 322.117188 140.066406 C 323.132812 141.808594 328.390625 153.050781 330.636719 158.273438 C 329.449219 158.570312 328.390625 159.121094 327.542969 159.84375 L 289.441406 80.613281 C 289.398438 80.488281 289.269531 80.402344 289.1875 80.316406 C 289.101562 80.191406 289.015625 80.0625 288.933594 79.976562 C 288.847656 79.894531 288.71875 79.851562 288.59375 79.765625 C 288.464844 79.679688 288.339844 79.597656 288.210938 79.554688 C 288.128906 79.511719 288 79.511719 287.871094 79.511719 C 287.789062 79.511719 287.703125 79.46875 287.617188 79.46875 C 288.804688 79.085938 289.90625 78.664062 291.007812 78.195312 C 295.078125 86.386719 298.382812 93.132812 301.6875 99.839844 C 305.25 107.050781 308.808594 114.265625 313.300781 123.347656 C 313.683594 124.109375 314.402344 124.535156 315.207031 124.535156 C 315.503906 124.535156 315.84375 124.449219 316.140625 124.324219 C 317.199219 123.8125 317.625 122.542969 317.117188 121.480469 C 312.625 112.398438 309.0625 105.183594 305.503906 97.972656 C 301.984375 90.757812 298.425781 83.585938 293.933594 74.546875 C 293.890625 74.417969 293.765625 74.335938 293.722656 74.25 C 293.636719 74.121094 293.550781 74.039062 293.46875 73.910156 C 293.382812 73.824219 293.253906 73.78125 293.128906 73.699219 C 293 73.613281 292.917969 73.527344 292.746094 73.484375 C 292.621094 73.441406 292.492188 73.441406 292.367188 73.402344 C 292.238281 73.359375 292.070312 73.359375 291.941406 73.359375 C 291.8125 73.359375 291.6875 73.402344 291.558594 73.441406 C 291.433594 73.484375 291.304688 73.484375 291.179688 73.527344 C 287.957031 74.929688 284.3125 76.414062 280.796875 76.371094 C 277.914062 76.285156 274.523438 74.589844 273.886719 71.660156 C 273.84375 71.574219 273.800781 71.492188 273.761719 71.363281 C 273.71875 71.277344 273.71875 71.152344 273.675781 71.066406 C 273.675781 71.023438 273.632812 71.023438 273.589844 70.980469 C 273.507812 70.855469 273.421875 70.769531 273.335938 70.683594 C 273.210938 70.558594 273.125 70.472656 272.996094 70.386719 C 272.914062 70.34375 272.828125 70.304688 272.699219 70.261719 C 272.574219 70.175781 272.402344 70.132812 272.234375 70.089844 C 272.105469 70.046875 271.980469 70.089844 271.894531 70.046875 C 271.726562 70.046875 271.597656 70.046875 271.429688 70.046875 C 271.386719 70.046875 271.34375 70.046875 271.34375 70.046875 C 271.21875 70.089844 271.132812 70.132812 271.046875 70.175781 C 270.964844 70.21875 270.835938 70.21875 270.75 70.261719 L 266.851562 72.46875 C 240.023438 87.742188 218.878906 99.796875 199.890625 111.125 C 198.875 111.71875 198.578125 113.035156 199.171875 114.054688 C 199.550781 114.734375 200.273438 115.074219 200.992188 115.074219 C 201.375 115.074219 201.753906 114.988281 202.09375 114.777344 C 221.039062 103.445312 242.1875 91.394531 268.972656 76.160156 L 270.792969 75.097656 C 272.828125 78.535156 276.9375 80.445312 280.625 80.570312 C 280.796875 80.570312 281.007812 80.570312 281.175781 80.570312 C 282.871094 80.570312 284.523438 80.273438 286.136719 79.851562 L 103.644531 171.257812 L 182.007812 125.808594 C 183.023438 125.214844 183.363281 123.941406 182.769531 122.921875 C 182.175781 121.90625 180.902344 121.566406 179.886719 122.160156 L 98.941406 169.09375 C 97.921875 169.6875 97.582031 170.960938 98.175781 171.980469 C 98.558594 172.65625 99.277344 173.039062 100 173.039062 C 100.042969 173.039062 100.125 172.996094 100.167969 172.996094 L 68.976562 188.613281 C 68.636719 188.785156 68.425781 189.039062 68.214844 189.335938 C 67.449219 189.632812 66.644531 189.929688 65.882812 190.183594 C 65.585938 190.3125 65.289062 190.394531 64.992188 190.523438 L 61.261719 183.394531 L 290.839844 48.746094 L 349.75 166.675781 L 334.789062 174.992188 Z M 329.574219 164.128906 " fill-opacity="1" fill-rule="nonzero"/></g><path fill="#000000" d="M 181.539062 265.039062 C 182.640625 265.039062 183.742188 264.996094 184.804688 264.871094 C 216.121094 261.898438 225.699219 233.554688 224.515625 215.261719 C 224.429688 214.117188 223.496094 213.226562 222.265625 213.269531 C 221.082031 213.351562 220.234375 214.371094 220.277344 215.519531 C 221.378906 232.195312 212.691406 257.953125 184.378906 260.625 C 172.894531 261.6875 152.550781 255.195312 143.863281 232.746094 C 143.4375 231.644531 142.210938 231.132812 141.109375 231.515625 C 140.007812 231.941406 139.457031 233.171875 139.878906 234.273438 C 148.226562 255.832031 166.621094 265.039062 181.539062 265.039062 Z M 181.539062 265.039062 " fill-opacity="1" fill-rule="nonzero"/><path fill="#000000" d="M 57.238281 217.765625 C 57.066406 218.234375 56.984375 218.742188 57.152344 219.253906 C 66.773438 248.871094 75.375 270.683594 86.902344 294.449219 C 86.988281 294.574219 87.117188 294.660156 87.199219 294.746094 C 87.199219 294.789062 87.199219 294.789062 87.199219 294.828125 C 87.707031 295.890625 88.9375 296.359375 89.996094 295.847656 C 92.496094 294.703125 96.523438 294.746094 99.492188 296.019531 C 100.804688 296.570312 102.542969 297.628906 103.179688 299.371094 C 103.347656 299.878906 103.730469 300.21875 104.195312 300.472656 C 104.578125 300.8125 105.042969 301.066406 105.550781 301.066406 C 105.761719 301.066406 105.976562 301.027344 106.1875 300.984375 L 300.164062 239.789062 C 300.207031 239.789062 300.246094 239.75 300.289062 239.75 C 300.417969 239.707031 300.542969 239.621094 300.671875 239.535156 C 300.800781 239.453125 300.882812 239.410156 301.011719 239.324219 C 301.09375 239.238281 301.179688 239.113281 301.265625 239.027344 C 301.351562 238.898438 301.433594 238.816406 301.476562 238.6875 C 301.519531 238.558594 301.5625 238.433594 301.605469 238.304688 C 301.648438 238.179688 301.6875 238.007812 301.6875 237.882812 C 301.6875 237.839844 301.730469 237.796875 301.730469 237.753906 C 301.6875 235.503906 302.664062 233.214844 304.445312 231.429688 C 306.222656 229.648438 308.386719 228.628906 310.757812 228.714844 C 310.757812 228.714844 310.757812 228.714844 310.800781 228.714844 C 311.097656 228.714844 311.394531 228.671875 311.648438 228.546875 C 312.070312 228.332031 312.367188 227.992188 312.582031 227.613281 C 312.625 227.527344 312.664062 227.484375 312.707031 227.398438 C 312.792969 227.230469 312.792969 227.058594 312.835938 226.890625 C 312.835938 226.804688 312.878906 226.722656 312.917969 226.59375 C 312.917969 226.59375 312.917969 226.550781 312.917969 226.550781 C 312.917969 226.421875 312.878906 226.296875 312.835938 226.125 C 312.792969 226 312.792969 225.828125 312.75 225.703125 C 312.75 225.703125 312.75 225.660156 312.75 225.660156 L 290.414062 175.753906 C 289.949219 174.695312 288.679688 174.183594 287.617188 174.695312 C 286.558594 175.160156 286.050781 176.433594 286.558594 177.496094 L 307.664062 224.855469 C 305.375 225.449219 303.171875 226.636719 301.390625 228.417969 C 299.230469 230.582031 297.917969 233.339844 297.578125 236.183594 L 106.441406 296.484375 C 105.339844 294.660156 103.558594 293.175781 101.1875 292.15625 C 97.753906 290.714844 93.601562 290.5 90.167969 291.433594 C 79.019531 268.308594 70.585938 246.878906 61.179688 217.9375 C 61.136719 217.765625 61.007812 217.640625 60.925781 217.511719 C 64.019531 214.328125 66.304688 210.46875 67.535156 206.222656 C 67.875 205.078125 67.238281 203.933594 66.09375 203.59375 C 64.949219 203.253906 63.804688 203.890625 63.46875 205.035156 C 62.363281 208.8125 60.289062 212.292969 57.449219 215.050781 C 56.6875 215.773438 56.644531 216.917969 57.238281 217.765625 Z M 57.238281 217.765625 " fill-opacity="1" fill-rule="nonzero"/><path fill="#000000" d="M 320.292969 127.464844 C 319.785156 126.402344 318.515625 125.976562 317.453125 126.488281 C 316.394531 126.996094 315.972656 128.269531 316.480469 129.332031 L 318.726562 133.828125 C 319.109375 134.59375 319.828125 135.015625 320.632812 135.015625 C 320.929688 135.015625 321.269531 134.933594 321.566406 134.804688 C 322.625 134.296875 323.050781 133.023438 322.539062 131.960938 Z M 320.292969 127.464844 " fill-opacity="1" fill-rule="nonzero"/></svg>