  <svg xmlns="http://www.w3.org/2000/svg" viewBox="0 0 1440 320">
        <path fill="#4267B2" fill-opacity="1" d="M0,160L12.6,165.3C25.3,171,51,181,76,208C101.1,235,126,277,152,250.7C176.8,224,202,128,227,117.3C252.6,107,278,181,303,176C328.4,171,354,85,379,48C404.2,11,429,21,455,74.7C480,128,505,224,531,240C555.8,256,581,192,606,181.3C631.6,171,657,213,682,208C707.4,203,733,149,758,154.7C783.2,160,808,224,834,218.7C858.9,213,884,139,909,101.3C934.7,64,960,64,985,64C1010.5,64,1036,64,1061,96C1086.3,128,1112,192,1137,224C1162.1,256,1187,256,1213,234.7C1237.9,213,1263,171,1288,149.3C1313.7,128,1339,128,1364,112C1389.5,96,1415,64,1427,48L1440,32L1440,320L1427.4,320C1414.7,320,1389,320,1364,320C1338.9,320,1314,320,1288,320C1263.2,320,1238,320,1213,320C1187.4,320,1162,320,1137,320C1111.6,320,1086,320,1061,320C1035.8,320,1011,320,985,320C960,320,935,320,909,320C884.2,320,859,320,834,320C808.4,320,783,320,758,320C732.6,320,707,320,682,320C656.8,320,632,320,606,320C581.1,320,556,320,531,320C505.3,320,480,320,455,320C429.5,320,404,320,379,320C353.7,320,328,320,303,320C277.9,320,253,320,227,320C202.1,320,177,320,152,320C126.3,320,101,320,76,320C50.5,320,25,320,13,320L0,320Z"></path>
      </svg>