<?xml version="1.0" encoding="utf-8"?>
<!-- Generator: Adobe Illustrator 26.0.3, SVG Export Plug-In . SVG Version: 6.00 Build 0)  -->
<svg version="1.0" id="katman_1" xmlns="http://www.w3.org/2000/svg" xmlns:xlink="http://www.w3.org/1999/xlink" x="0px" y="0px"
	 viewBox="0 0 800 600" style="enable-background:new 0 0 800 600;" xml:space="preserve">
<style type="text/css">
	.st0{fill:#133444;}
	.st1{fill:#C42370;}
	.st2{fill:#1C4D6B;}
	.st3{fill:#1D4259;}
	.st4{fill:#4B6B9A;}
	.st5{fill:#343535;}
	.st6{fill:#3E5578;}
	.st7{fill:#6DB2D8;}
	.st8{fill:#335F8A;}
	.st9{fill:#529BBA;}
</style>
<g id="Layer_2_1_">
	<g id="Layer_1-2">
		<g id="Layer_2-2">
			<g id="Layer_1-2-2">
				<polygon class="st0" points="69.5,315.6 74.4,313.5 134.4,287.4 199.3,315.6 174.9,366 115.3,374.4 70.5,326 				"/>
				<path class="st1" d="M185.8,284.6c-10.7-12.9-25.9-21.3-42.5-23.5c-0.4,0-0.7-0.1-1.1-0.1c-5.2-0.6-10.4-0.6-15.6,0
					c-0.4,0-0.7,0.1-1.1,0.1c-16.6,2.2-31.8,10.6-42.5,23.5l0,0l-2.7,4.5l-4.5,7.5l-3.3,5.5l0,0c0,0.2-0.1,0.3-0.2,0.4v0.1l7.2,4.3
					l46,27.2l8.9,5.2v-65l-8.9,4v-9.7l8.9-4l8.9,4l45.2,20.5L185.8,284.6z"/>
				<path class="st2" d="M201.3,331.8c-0.1,21.3-9.7,41.4-26.2,54.9c-6.3,5.1-13.4,9.1-21.1,11.7c-6.3,2.1-12.9,3.2-19.5,3.2
					c-37,0-66.9-32.9-66.9-69.8c0-5.5,0.7-10.9,2-16.2l64.9,38.4l64.9-38.4C200.6,320.9,201.3,326.3,201.3,331.8z"/>
				<polygon points="126.6,260.9 134.4,264.5 125.5,268.5 125.5,260.5 				"/>
				<polygon points="125.5,278.3 134.4,274.2 134.4,339.2 125.5,334 				"/>
				<polygon class="st3" points="134.4,274.2 134.4,339.2 196.6,302.5 				"/>
				<polygon class="st4" points="134.4,199.3 134.4,274.2 196.6,302.5 				"/>
				<path class="st5" d="M134.4,274.2v65l-8.9-5.2l-53.2-31.5l0,0c0-0.2,0.1-0.3,0.2-0.4l0,0l7.8-12.9l45.2-20.5v9.8L134.4,274.2z"
					/>
				<polygon class="st6" points="134.4,274.2 134.4,339.2 125.5,334 72.3,302.5 72.2,302.5 72.3,302.4 125.5,278.3 				"/>
				<polygon class="st7" points="134.4,199.3 134.4,274.2 72.2,302.5 				"/>
				<path class="st8" d="M109.2,396.3c0.9,0.4,1.9,0.8,2.8,1.2C111.1,397.1,110.2,396.7,109.2,396.3z"/>
				<path class="st8" d="M112,397.4c0.9,0.4,1.9,0.7,2.9,1C113.9,398.1,113,397.8,112,397.4z"/>
				<path class="st8" d="M117.4,399.2c0.8,0.2,1.5,0.4,2.2,0.6L117.4,399.2z"/>
				<path class="st7" d="M69.5,315.6l64.9,38.4c-0.9,5.8-2.4,11.5-4.7,17c-5.2,12.6-15.7,25.8-36,15.7l0,0
					c-16.5-13.5-26.1-33.7-26.2-55C67.5,326.3,68.2,320.9,69.5,315.6z"/>
				<path class="st9" d="M174.9,386.8L174.9,386.8c-0.4,0.3,0,0-1.3,1.1l-0.6,0.4l-0.9,0.6l-1.1,0.8c1.1-0.8-0.9,0.6-1.3,0.9
					c-0.4,0.2-0.7,0.4-1.1,0.7l-0.7,0.5c-0.2,0.1-0.5,0.3-0.7,0.5c0,0-0.3,0.3-0.4,0.3c0.4-0.3-0.5,0.2-0.9,0.5
					c-0.5,0.2-0.9,0.4-1.3,0.7l-1.4,0.7l-0.6,0.3c-0.4,0.2-0.2,0-0.6,0.3c-0.4,0.3-0.9,0.4-1.4,0.7c-0.5,0.3,0,0-1.7,0.8
					c1.7-0.8,0,0-0.9,0.4c0.9-0.4-1.6,0.6-2.7,1c-0.4,0.1-2.6,0.8-3,0.9c-0.4,0.1-0.9,0.3-1.3,0.4c-0.8,0.2-1.5,0.4-2.2,0.6
					c-0.3,0.1-0.6,0.1-0.8,0.2l-0.5,0.1l-1.2,0.3c-0.4,0.1-0.7,0.1-1.1,0.2c-0.4,0.1-0.7,0.1-1,0.2c-0.3,0.1-0.8,0.1-1.1,0.2
					c-0.2,0-0.4,0-0.5,0.1l-0.8,0.1h-0.4c-0.3,0-0.6,0.1-0.9,0.1s-0.8,0.1-1.2,0.1h-10.2c-0.4,0-0.8-0.1-1.2-0.1
					c-0.3,0-0.6,0-0.9-0.1h-0.4c-0.3,0-0.6-0.1-0.8-0.1c-0.2,0-0.4,0-0.5-0.1c-0.4,0-0.7-0.1-1.1-0.2c-0.3,0-0.7-0.1-1-0.2
					c-0.3-0.1-0.7-0.1-1.1-0.2l-1.2-0.3l-0.5-0.1c-0.3,0-0.6-0.1-0.8-0.2c-0.8-0.2-1.5-0.4-2.2-0.6l-1.3-0.4
					c-0.4-0.1-0.8-0.2-1.2-0.4c-1-0.3-1.9-0.7-2.9-1c-1-0.3-1.9-0.8-2.8-1.2c-0.4-0.2-0.9-0.4-1.4-0.6c-0.5-0.2-1-0.4-1.4-0.7
					c-0.5-0.2-0.9-0.4-1.3-0.7l0,0c-0.4-0.2-0.9-0.5-1.3-0.7c-0.4-0.2-0.7-0.4-1-0.6c-1-0.6-1.6-1-1-0.6l-0.6-0.4l-1.1-0.7l-0.4-0.2
					l-1-0.7c-0.4-0.3-0.8-0.5-1.2-0.8c-0.4-0.3-0.9-0.6-1.3-0.9c-0.4-0.3-0.8-0.7-1.1-0.9l-0.4-0.3c-0.4-0.2-0.7-0.5-1-0.8l0,0
					c20.3,10.1,30.7-3.3,35.9-15.8c2.2-5.5,3.8-11.2,4.7-17c0.9,5.9,2.4,11.7,4.7,17.2C144.4,383.5,154.6,396.8,174.9,386.8z"/>
				<path class="st8" d="M149.2,399.8c0.8-0.2,1.5-0.4,2.2-0.6L149.2,399.8z"/>
				<path class="st8" d="M153.9,398.4c1-0.3,1.9-0.6,2.9-1C155.8,397.8,154.9,398.1,153.9,398.4z"/>
				<path class="st8" d="M156.6,397.5c0.9-0.4,2.1-0.8,3-1.3C158.6,396.7,157.5,397.1,156.6,397.5z"/>
				<path class="st4" d="M201.3,331.8c-0.1,21.3-9.7,41.4-26.2,54.9c-20.3,10.1-30.8-3.2-36-15.7c-2.2-5.5-3.8-11.2-4.7-17
					l64.9-38.4C200.6,320.9,201.3,326.3,201.3,331.8z"/>
			</g>
		</g>
		<path class="st7" d="M272.9,399.6h-22V252.7h22v10.4c8.7-8.7,18.5-13,29.5-13c13.1,0,23.9,4.8,32.3,14.5
			c8.6,9.6,12.9,21.6,12.9,36.2c0,14.3-4.3,26.1-12.8,35.6c-8,9.2-19.8,14.4-32,14.2c-11.1,0-21.1-4.5-29.9-13.4L272.9,399.6
			L272.9,399.6z M325.2,300.8c0-9.1-2.5-16.5-7.4-22.3c-4.6-5.6-11.6-8.8-18.9-8.7c-8.1,0-14.6,2.8-19.6,8.4c-5,5.6-7.5,13-7.5,22.1
			c0,8.9,2.5,16.3,7.5,22.1s11.5,8.5,19.5,8.5c7.3,0.2,14.2-3,18.8-8.6C322.6,316.6,325.2,309.4,325.2,300.8L325.2,300.8z"/>
		<path class="st7" d="M366.4,299.6c-0.2-13.2,5.1-26,14.7-35.1c9.5-9.5,22.5-14.7,35.9-14.5c14.2,0,26.2,4.9,36.1,14.6
			c9.9,9.7,14.6,21.6,14.6,35.7c0,14.3-4.9,26.2-14.7,35.8s-22,14.4-36.4,14.4s-26.2-4.9-35.8-14.6S366.4,314.1,366.4,299.6z
			 M388.9,300c0,9.5,2.5,17,7.6,22.6c5.1,5.6,12.1,8.4,20.6,8.4s15.5-2.8,20.6-8.3s7.7-12.9,7.7-22.2c0-9.3-2.6-16.6-7.7-22.2
			s-12.1-8.4-20.6-8.4s-15.2,2.8-20.4,8.4S388.9,291.1,388.9,300z"/>
		<path class="st7" d="M485.1,252.7h22v8.5c4-4.2,7.6-7.1,10.7-8.7c3.5-1.7,7.4-2.5,11.3-2.4c5.8,0,11.8,1.9,18.2,5.7l-10.1,20.1
			c-4.2-3-8.2-4.5-12.2-4.5c-12,0-18,9-18,27.1v49.3h-22L485.1,252.7z"/>
		<path class="st7" d="M588.6,273.2v74.6h-22v-74.6h-9.4v-20.5h9.4v-34.9h22v34.9h17.1v20.5H588.6z"/>
		<path class="st7" d="M617.3,213.1c0-3.8,1.5-7.4,4.2-10c5.6-5.6,14.7-5.6,20.3,0c2.8,2.6,4.3,6.3,4.2,10.1
			c0.1,3.8-1.5,7.5-4.2,10.2c-2.6,2.8-6.3,4.3-10.1,4.2c-3.8,0.1-7.5-1.5-10.2-4.2C618.7,220.7,617.2,217,617.3,213.1z M642.6,252.7
			v95.1h-22v-95.1H642.6z"/>
		<path class="st7" d="M725.7,268.9l-18.2,9.7c-2.9-5.9-6.4-8.8-10.6-8.8c-1.9,0-3.8,0.7-5.2,2c-1.4,1.3-2.2,3.2-2.1,5.1
			c0,3.6,4.2,7.3,12.7,10.8c11.7,5,19.5,9.6,23.5,13.9c4,4.3,6.1,9.9,6.1,17.1c0.2,8.8-3.6,17.2-10.2,23c-6.5,5.9-15,9-23.8,8.8
			c-16,0-27.2-7.8-33.9-23.3l18.8-8.7c2.6,4.6,4.6,7.5,6,8.7c2.6,2.4,6,3.8,9.6,3.7c7.4,0,11.1-3.4,11.1-10.2
			c0-3.9-2.9-7.6-8.6-10.9c-2.2-1.1-4.4-2.2-6.6-3.2s-4.5-2.1-6.7-3.2c-6.4-3.1-10.9-6.2-13.5-9.4c-3.3-4-5-9.1-5-15.3
			c0-8.3,2.8-15.1,8.5-20.5s13.3-8.3,21.1-8.1C710.7,250,719.7,256.3,725.7,268.9z"/>
	</g>
</g>
</svg>
